<?xml version="1.0" encoding="utf-8"?>
<!-- Generator: Adobe Illustrator 16.0.0, SVG Export Plug-In . SVG Version: 6.00 Build 0)  -->
<!DOCTYPE svg PUBLIC "-//W3C//DTD SVG 1.1//EN" "http://www.w3.org/Graphics/SVG/1.1/DTD/svg11.dtd">
<svg version="1.1" id="Layer_1" xmlns="http://www.w3.org/2000/svg" xmlns:xlink="http://www.w3.org/1999/xlink" x="0px" y="0px"
	 width="283.5px" height="283.5px" viewBox="0 0 283.5 283.5" enable-background="new 0 0 283.5 283.5" xml:space="preserve">
<path fill="#FFFFFF" d="M270.1,20.1L215,26l18.2,17.9l-59.8,72l-62-56.5c-4.3-3.9-10.8-3.9-15.1-0.1L5.1,140.4
	c-4.6,4.1-4.9,11-0.8,15.6c2.2,2.4,5.3,3.6,8.3,3.6c2.7,0,5.4-0.9,7.5-2.8l83.6-74.4l63.2,57.6c2.3,2,5.3,3.1,8.4,2.9
	c3.1-0.2,6-1.7,7.9-4L249,59.6l15.1,14.8L270.1,20.1z M206,182.3c0-7.9-6.5-14.3-14.5-14.3h-27.7c-7.9,0-14.5,6.4-14.5,14.3v65.4
	c0,7.8,6.5,14.3,14.5,14.3h27.7c8,0,14.5-6.4,14.5-14.3V182.3z M281.6,123.5c0-8.3-6.9-15.1-15.3-15.1h-26
	c-8.4,0-15.3,6.8-15.3,15.1v123.3c0,8.3,6.9,15.1,15.3,15.1h26c8.4,0,15.3-6.8,15.3-15.1V123.5z M134,152.9
	c0-7.9-6.5-14.3-14.5-14.3H91.9c-8,0-14.5,6.4-14.5,14.3v94.8c0,7.8,6.5,14.3,14.5,14.3l27.7,0c8,0,14.5-6.4,14.5-14.3V152.9z
	 M62,217.5c0-7.8-6.5-14.3-14.5-14.3H19.9c-8,0-14.5,6.4-14.5,14.3v30.2c0,7.8,6.5,14.3,14.5,14.3h27.7c8,0,14.5-6.4,14.5-14.3
	V217.5z"/>
<g>
</g>
<g>
</g>
<g>
</g>
<g>
</g>
<g>
</g>
<g>
</g>
</svg>
