<?xml version="1.0" encoding="utf-8"?>
<!-- Generator: Adobe Illustrator 16.0.0, SVG Export Plug-In . SVG Version: 6.00 Build 0)  -->
<!DOCTYPE svg PUBLIC "-//W3C//DTD SVG 1.1//EN" "http://www.w3.org/Graphics/SVG/1.1/DTD/svg11.dtd">
<svg version="1.1" id="Layer_1" xmlns="http://www.w3.org/2000/svg" xmlns:xlink="http://www.w3.org/1999/xlink" x="0px" y="0px"
	 width="283.5px" height="283.5px" viewBox="0 0 283.5 283.5" enable-background="new 0 0 283.5 283.5" xml:space="preserve">
<path fill="#FFFFFF" d="M224,147.8c-2.7,0.6-4.8,2.6-6.2,4.9c-3.8,5.7-7.7,11.4-11.4,17.2c-2.1,3,0.6,7.6,4.3,7.4h55.4
	c2.9,0,5.1-2.8,5-5.6c0-5,0-10,0-15c0-2.2-0.1-4.5-0.8-6.7c-1-1.6-2.8-2.9-4.8-2.7c-12.9,0-25.7,0-38.6,0
	C225.9,147.5,225,147.6,224,147.8 M93.5,147.8c-5.6,1.2-9.8,8.4-6.6,13.6c5,9.3,10,18.6,15,27.9c1.5,2.9,3.5,5.9,6.5,7.3
	c2.1,1,4.4,0.7,6.6,0.8c19.1,0,38.1,0,57.2,0c4-0.2,7-3.5,8.8-6.8c5.4-10.1,10.9-20.2,16.2-30.3c2.2-5.9-3.3-12.8-9.4-12.6
	c-30.7,0-61.4,0-92.1,0C95,147.5,94.2,147.6,93.5,147.8 M16.4,147.7c-2.4,0.7-3.7,3-3.8,5.4c-0.3,6.2-0.1,12.5-0.2,18.7
	c-0.1,2.8,2.1,5.5,5,5.6c18.3,0,36.5,0,54.7,0c4.1,0.6,7.3-4.6,4.6-7.8c-3.8-5.7-7.6-11.5-11.4-17.2c-1.7-2.8-4.8-4.8-8.1-4.9
	c-12.4,0-24.9,0-37.3,0C18.8,147.5,17.5,147.4,16.4,147.7 M126.4,48.2c-15.9,0.5-31.8,0.7-47.5,3.5c-3.3,0.7-6.8,1.4-9.7,3.3
	c-3.2,2.9-5.9,6.2-8.8,9.4c-8,9.7-13.6,21.2-18,33c-1.5,3.3,1.1,7.4,4.8,7c18-1.8,36-3.2,54.1-4.1c6.6-0.1,13.3-0.8,19.9-0.6
	c15.3-0.6,30.6-0.7,46-0.3c7,0.5,14.1,0.1,21.1,0.6c4,0.4,8,0.1,11.9,0.5c4.6,0.5,9.2,0.2,13.7,0.9c4.6,0,9.1,0.7,13.6,0.8
	c3.1,0.3,6.1,0.8,9.2,0.4c2.6-0.7,4.3-3.8,3.3-6.3c-4.1-11.7-9.4-23.3-17.6-32.7c-2.6-2.8-5-5.9-7.9-8.3c-3.9-2.1-8.5-2.7-12.8-3.4
	c-8.7-1.4-17.5-2-26.3-2.7c-4.8,0-9.5-0.8-14.3-0.6C149.5,48.3,138,47.7,126.4,48.2 M100.3,25c1.1-4,5-6.9,9.1-6.9
	c21.4,0,42.7,0,64.1,0c3.1-0.1,6.2,1.3,8.1,3.7c1.8,2.3,2.2,5.4,2.9,8.1c0.9,3.5,1.6,7,2.7,10.4c7.4,0.5,14.7,1.6,22,3
	c4,1,8.4,1.7,11.8,4.3c2.9,2.7,5.5,5.7,8.2,8.6c9.3,10.5,15.5,23.3,20.2,36.4c0.6,1.6,1,3.4,1.8,4.9c1.6,1.2,3.4,2,4.9,3.2
	c8.4,6.1,14.1,15.3,18.1,24.8c3.8,9.1,6.1,18.9,6.7,28.7c0.1,15.8,0.2,31.6-2,47.2c-0.8,4.4-1.5,9-3.9,12.9c-0.9,1.3-2.2,2.9-4,2.7
	c-19.5,0-39,0-58.5,0c-0.7,0-1.4,0.1-2.1,0.3c-9.7,3.2-19.3,6.5-29,9.6c-25.7,0.1-51.4,0-77.1,0.1c-1.2,0-2.3,0.1-3.5-0.3
	c-9.1-3.1-18.3-6.1-27.5-9.2c-1.8-0.7-3.8-0.4-5.7-0.5c-18.6,0-37.3,0.1-55.9,0c-3.1-0.7-4.4-4.3-5.4-7c-3-10-3.1-20.5-3.8-30.9
	c-0.2-8.7-0.2-17.5-0.1-26.2c1.5-16.6,7-33.3,17.9-46c3.1-3.6,6.9-6.6,11-8.9c0.8-0.3,1.1-1.1,1.3-1.8c4-11.8,8.9-23.4,16.2-33.5
	c3.6-5.1,7.9-9.5,12.2-13.9c2.3-2.5,5.5-3.9,8.7-4.9c8.7-2.7,17.7-3.5,26.7-4.5C97.9,34.6,99,29.8,100.3,25"/>
<path fill="#FFFFFF" d="M12.5,227.1c19.1,0,38.1,0,57.2,0c0.9,0,2.6-0.1,2.4,1.3c0,6.2,0,12.4,0,18.7c0.2,5.3-4.7,10.1-9.9,9.9
	c-13.3,0-26.6,0-39.9,0c-5.3,0.2-10.1-4.7-9.9-9.9C12.5,240.4,12.5,233.8,12.5,227.1"/>
<path fill="#FFFFFF" d="M211.4,228.4c-0.2-1.4,1.5-1.2,2.4-1.3c19.1,0,38.1,0,57.2,0c0,6.6,0,13.3,0,19.9c0.2,5.2-4.7,10.1-9.9,9.9
	c-13.3,0-26.6,0-39.9,0c-5.3,0.2-10.1-4.7-9.9-9.9C211.4,240.9,211.3,234.7,211.4,228.4"/>
<g>
</g>
<g>
</g>
<g>
</g>
<g>
</g>
<g>
</g>
<g>
</g>
</svg>
