<?xml version="1.0" encoding="utf-8"?>
<!-- Generator: Adobe Illustrator 16.0.0, SVG Export Plug-In . SVG Version: 6.00 Build 0)  -->
<!DOCTYPE svg PUBLIC "-//W3C//DTD SVG 1.1//EN" "http://www.w3.org/Graphics/SVG/1.1/DTD/svg11.dtd">
<svg version="1.1" id="Layer_1" xmlns="http://www.w3.org/2000/svg" xmlns:xlink="http://www.w3.org/1999/xlink" x="0px" y="0px"
	 width="283.5px" height="283.5px" viewBox="0 0 283.5 283.5" enable-background="new 0 0 283.5 283.5" xml:space="preserve">
<path fill="#FFFFFF" d="M123.8,56.8c12.8,0,23.1-10.3,23.1-23c0-12.7-10.3-23-23.1-23c-12.7,0-23.1,10.3-23.1,23
	C100.7,46.4,111.1,56.8,123.8,56.8"/>
<path fill="#FFFFFF" d="M197.3,76.7l-14.6,17.4c0,0.3-4.9-7.2-6.5-9.6c-8.1-12.4-10.9-23.2-27.6-23.2l-24.8,0l-24.8,0
	c-22.3,0-29.5,5.7-29.5,29.8v74.6c0,0,0.7,8.1,9.5,8.1c8.8,0,9.7-8.1,9.7-8.1l1-68.6h4.8v182.3h28.7V172.2h3.9v107.3h26.2V91.9
	c0,0,12.3,17,16,22.9c5.5,8.7,11.4,11.3,17.7,3.5l24.8-29.9C219.5,78.5,205.5,67.9,197.3,76.7"/>
<path fill="#FFFFFF" d="M146.9,12.2c0,3-2.4,5.4-5.4,5.4h-35.5c-3,0-5.4-2.4-5.4-5.4s2.4-5.4,5.4-5.4h35.5
	C144.5,6.8,146.9,9.2,146.9,12.2"/>
<g>
</g>
<g>
</g>
<g>
</g>
<g>
</g>
<g>
</g>
<g>
</g>
</svg>
