<?xml version="1.0" encoding="utf-8"?>
<!-- Generator: Adobe Illustrator 16.0.0, SVG Export Plug-In . SVG Version: 6.00 Build 0)  -->
<!DOCTYPE svg PUBLIC "-//W3C//DTD SVG 1.1//EN" "http://www.w3.org/Graphics/SVG/1.1/DTD/svg11.dtd">
<svg version="1.1" id="Layer_1" xmlns="http://www.w3.org/2000/svg" xmlns:xlink="http://www.w3.org/1999/xlink" x="0px" y="0px"
	 width="283.5px" height="283.5px" viewBox="0 0 283.5 283.5" enable-background="new 0 0 283.5 283.5" xml:space="preserve">
<path fill="#FFFFFF" d="M213.5,167.4c11.9,14.9,22.7,15.1,28.5,22.3c0.2-15-12.1-23.3-25.6-25c6.7,0.2,16.1-1.2,20.1,4.4
	c-2.5-9.5-13.2-16.9-23.7-7.8c3.4-9.6-9.1-19.4-18-17.1c7.1,2.1,6,9.1,11.8,16c-7.3-6-22.7-11.8-32.2,1.1c5.8-3,15.9,3.4,29.6,2
	c-7.1,1.7-28,7-29,25.9c5-9.3,15.4-9.6,24.5-13.4c-6.1,12.2-13.6,32.9-15.5,62.9c-1.5-0.3-3.1-0.6-4.6-0.9
	c-2.1-30.4-16.4-52.8-29.2-68.7c9.2,5,19.3,9.9,21.7,14.6c-3.1-21.1-19.8-26.1-34.4-29.4l0,0c24.7,4.7,29.6-8.5,42.5-3.1
	c-8.9-9.5-29.3-10.6-44.5-0.3c8.7-8.9,24.3-9.9,30.3-20.6c-14.7-2.7-29.2,8.9-32.1,20.3c0.9-7.2-2.6-18.3,4.3-22.3
	c-10.9,0.4-15.6,16-10.1,23.2c-10.4-5-19.8,6.8-19.8,15c4.4-5.5,11.6-9.2,18.4-11.3c-13.1,7.1-21.8,24.3-19.4,44
	c0.5-11.7,13.4-21.1,21.1-39.1c-4.7,14.2-2.9,40.3,17,49.1c-12.8-12.8-1.4-25.5-7.3-44.2c13.2,15.1,31.6,38.2,34.6,71.3
	c-39.2-8.7-81.6-25.1-115.2-21l14.7,35.5h140.8l3.9-9.4c-8.2,0.4-16.8-0.3-25.7-1.6c2-34.9,11.9-56.5,17.9-66.5
	c0.2,12.6,10.6,30,8.1,41.8C223.1,200.7,220.4,178.5,213.5,167.4 M281.5,111.8l-61.9,149.6h-155L2.8,111.8
	C21.7,100.7,47,92.9,75,88.2c-0.6,3.7-1.4,8.9-2.2,15.5c-1.6,2.8-2.5,6-2.5,9.4c0,10.8,8.8,19.5,19.5,19.5
	c10.8,0,19.5-8.8,19.5-19.5c0-2.7-0.6-5.2-1.5-7.5c1-10.5,3.3-19.1,4.1-21.8c19.9-1.4,40.3-1.3,60.2,0.1c0.8,2.8,3.1,11.2,4.1,21.7
	c-1,2.3-1.5,4.8-1.5,7.4c0,10.8,8.8,19.5,19.5,19.5c10.8,0,19.5-8.8,19.5-19.5c0-3.3-0.9-6.5-2.3-9.2c-0.7-6.4-1.5-11.7-2.2-15.6
	C237.4,93.1,262.7,100.9,281.5,111.8 M86.1,86.4c5.1-24.2,18.7-61.1,54.6-61.4h2.7c33.8,0.3,47.9,33,53.7,57
	c1.4,5.7,3.4,16.7,3.9,25.3c1.3,1.4,2.2,3.6,2.2,5.8c0,4.9-4,8.9-8.9,8.9c-4.9,0-8.9-4-8.9-8.9c0-2,0.7-3.8,1.8-5.3
	c0-0.1-0.2-2.5-0.6-6.2c-0.8-6.9-2.1-12.8-3.1-16.7l0,0c-4.9-20-15.9-45.8-40.1-46h-2.6c-23.2,0.2-34.3,23.9-39.4,43.5
	c-1,3.7-2.8,11-3.8,20c-0.4,3.3-0.5,5.3-0.5,5.4v0c1.1,1.5,1.8,3.3,1.8,5.3c0,4.9-4,8.9-8.9,8.9c-4.9,0-8.9-4-8.9-8.9
	c0-2.2,1.1-4.3,2.2-5.8C84.3,96.3,85.5,89.9,86.1,86.4"/>
<g>
</g>
<g>
</g>
<g>
</g>
<g>
</g>
<g>
</g>
<g>
</g>
</svg>
