<?xml version="1.0" encoding="utf-8"?>
<!-- Generator: Adobe Illustrator 16.0.0, SVG Export Plug-In . SVG Version: 6.00 Build 0)  -->
<!DOCTYPE svg PUBLIC "-//W3C//DTD SVG 1.1//EN" "http://www.w3.org/Graphics/SVG/1.1/DTD/svg11.dtd">
<svg version="1.1" id="Layer_1" xmlns="http://www.w3.org/2000/svg" xmlns:xlink="http://www.w3.org/1999/xlink" x="0px" y="0px"
	 width="283.5px" height="283.5px" viewBox="0 0 283.5 283.5" enable-background="new 0 0 283.5 283.5" xml:space="preserve">
<path fill="#FFFFFF" d="M145.9,74.4c1.1,2,0.3,4.6-1.8,5.6c-0.6,0.3-1.3,0.5-1.9,0.5c-1.5,0-3-0.8-3.7-2.3
	c-10.8-20.8-23.8-20.4-40.2-20c0,0-0.1,0-0.1,0c-2.2,0-4.1-1.8-4.2-4.1c-0.1-2.3,1.8-4.2,4.1-4.3C115,49.4,132.6,48.9,145.9,74.4
	 M136.5,96.4l-15.2,3c-2.2-11.2-3-12.3-25.7-12.3V71.6C116.5,71.6,131.7,71.6,136.5,96.4 M99.7,155h15.5c0,22.7-12.2,40.5-27.9,40.5
	c-15.6,0-27.9-17.8-27.9-40.5H75c0,14.3,6.5,25,12.4,25C93.2,180,99.7,169.3,99.7,155 M35.7,78.2c-0.7,1.4-2.2,2.3-3.7,2.3
	c-0.6,0-1.3-0.2-1.9-0.5c-2-1.1-2.8-3.6-1.8-5.6c13.2-25.4,30.8-24.9,47.9-24.5c2.3,0.1,4.1,2,4.1,4.3c-0.1,2.3-1.9,4.1-4.2,4.1
	c0,0-0.1,0-0.1,0C59.4,57.8,46.5,57.4,35.7,78.2 M78.8,87.1c-22.7,0-23.5,1-25.7,12.3l-15.2-3c4.8-24.8,20-24.8,40.9-24.8V87.1z
	 M259.5,117.4c-0.6,1.8-2.2,3-4,3c-0.4,0-0.8-0.1-1.2-0.2c-2-0.6-4-1.2-6-1.8c-17.5-5-34-9.7-38.9-38c-0.4-2.3,1.1-4.4,3.4-4.8
	c2.3-0.4,4.4,1.1,4.8,3.4c4,23.1,16.2,26.6,33,31.4c2,0.6,4.1,1.2,6.2,1.8C258.9,112.8,260.1,115.1,259.5,117.4 M246.7,140
	c-20.9,0-36.1,0-40.9-24.8l15.2-3c2.2,11.2,3,12.3,25.7,12.3V140z M230.6,177.3c-6.5,0-8.5-5.6-6-10.2c3.1-5.7,6-10.9,6-10.9l6,10.9
	C239.2,171.7,237.1,177.3,230.6,177.3 M211.4,235.4c0-14.3-6.5-25-12.4-25c-5.8,0-12.4,10.7-12.4,25h-15.5
	c0-22.7,12.2-40.5,27.9-40.5c15.6,0,27.9,17.8,27.9,40.5H211.4z M163.8,124.2c10.6-0.7,11.6-3.3,13.3-12l15.2,3
	c-4.1,20.8-16.1,24.5-31.3,24.7C162.2,134.4,163.8,124.2,163.8,124.2 M166.2,103.3L166.2,103.3c7-4.3,12-11.1,14.3-24.3
	c0.4-2.3,2.6-3.8,4.8-3.4c2.3,0.4,3.8,2.6,3.4,4.8c-3.4,19.6-12.4,27.9-23.5,32.8L166.2,103.3z M137.4,171.5L137.4,171.5
	c-1.5,3.8-3,7.5-4.6,10.9v0c-0.8,1.7-1.6,3.4-2.5,5v0c-0.8,1.6-1.7,3.2-2.6,4.8v0c-11.2,19.4-25.2,31-40.4,31
	c-36.7,0-66.5-67.5-66.5-150.7c0-18.3,1.4-35.8,4.1-52h124.9c1.5,9.1,2.5,18.7,3.2,28.5c0.3,4.5,0.5,9.1,0.7,13.7
	c0.1,3.2,0.2,6.5,0.2,9.8C153.8,110.4,147.6,145,137.4,171.5 M275,60.6l-1.9-11.5H166.7c-0.7-10.5-1.8-20.7-3.4-30.7l-1.9-11.5H13.2
	l-1.9,11.5C8.5,35.7,7.1,53.9,7.1,72.5C7.1,166.3,41.6,237,87.3,237c17.1,0,32.7-9.9,45.4-27.3c14.2,42.6,38.1,69.5,66.3,69.5
	c45.7,0,80.2-70.7,80.2-164.4C279.3,96.2,277.8,77.9,275,60.6"/>
<g>
</g>
<g>
</g>
<g>
</g>
<g>
</g>
<g>
</g>
<g>
</g>
</svg>
