<?xml version="1.0" encoding="utf-8"?>
<!-- Generator: Adobe Illustrator 16.0.0, SVG Export Plug-In . SVG Version: 6.00 Build 0)  -->
<!DOCTYPE svg PUBLIC "-//W3C//DTD SVG 1.1//EN" "http://www.w3.org/Graphics/SVG/1.1/DTD/svg11.dtd">
<svg version="1.1" id="Layer_1" xmlns="http://www.w3.org/2000/svg" xmlns:xlink="http://www.w3.org/1999/xlink" x="0px" y="0px"
	 width="283.5px" height="283.5px" viewBox="0 0 283.5 283.5" enable-background="new 0 0 283.5 283.5" xml:space="preserve">
<path fill="#FFFFFF" d="M27.2,146.6c1.4-0.4,2.9-0.5,4.3-0.5c9.4,0,18.9,0,28.3,0c5.7,0.1,11.1,5.1,11.1,11.3c0,34.4,0,68.7,0,103.1
	c0,6.8-6.4,12.1-12.6,11.5c-9.5,0-18.9,0-28.3,0c-5.8,0-11.3-5.2-11.3-11.5c0-34.2,0-68.3,0-102.5C18.6,152.7,22.4,147.8,27.2,146.6
	 M167.8,3.5h2.4c8.2,0.8,16,5.6,20.8,12.7c3.6,5.2,5.3,11.6,6.1,18c0.9,7.9,0.5,15.9-1.3,23.6c-1.7,7.2-5.1,13.6-8.2,20.2
	c-3.5,7.4-7.1,15-9.1,23.1c-0.9,3.9-1.4,8.3,0.4,12.1c16.8-0.6,33.6-0.9,50.3-0.1c4.8,0.2,9.6,0.6,14.4,1.4c2.4,0.4,4.8,0.9,6.8,2.3
	c4,2.8,7.1,6.9,9.8,11c2.3,3.7,4.3,7.7,5.2,12.1c0.2,2.1,0.5,4.4-0.6,6.2c-2.1,3.8-5.1,6.9-7.1,10.7c-0.8,1.5-0.8,3.4-0.3,5
	c1.7,5.1,5.2,9.3,7.3,14.2c1,2.3,1.2,5.2-0.2,7.3c-2.6,4.5-6.7,7.7-9.2,12.3c-0.9,1.5-1,3.4-0.6,5c1.1,5.5,4.1,10.4,5.2,15.9
	c0.5,2.2,0,4.5-1.1,6.4c-2.3,4.4-6.1,7.5-9.3,11c-1.8,1.9-3.8,4-4.2,6.7c-0.5,4.3,0.3,8.6-0.2,12.8c-0.3,2.6-1.7,4.8-3.2,6.8
	c-3.1,4.2-6.9,7.8-11,10.8c-2.8,2.1-5.8,3.9-9.2,4.7c-7.5,1.8-15.2,2-22.8,2.4h-15.4c-16.1-0.5-32.3-1.4-48.4-3
	c-18.6-3.4-37.1-7-55.7-10.5c0-37.5,0-75,0-112.5c2.7-0.2,5.5,0.5,8-0.7c3.6-1.6,6.7-4.2,9.5-7.1c6.1-6.6,10.9-14.5,15.1-22.6
	c5.1-9.9,9.4-20.3,13.4-30.9c1.3-3.4,3.1-6.6,5.4-9.3c4.5-5.3,10.5-8.8,15.1-14c6.5-7.2,9.8-16.9,11.9-26.5
	c2.1-9.6,3.1-19.4,3.9-29.2c0.2-2,0.1-4,0.5-5.9C163.4,4.2,165.9,3.8,167.8,3.5"/>
<g>
</g>
<g>
</g>
<g>
</g>
<g>
</g>
<g>
</g>
<g>
</g>
</svg>
