<?xml version="1.0" encoding="utf-8"?>
<!-- Generator: Adobe Illustrator 16.0.0, SVG Export Plug-In . SVG Version: 6.00 Build 0)  -->
<!DOCTYPE svg PUBLIC "-//W3C//DTD SVG 1.1//EN" "http://www.w3.org/Graphics/SVG/1.1/DTD/svg11.dtd">
<svg version="1.1" id="Layer_1" xmlns="http://www.w3.org/2000/svg" xmlns:xlink="http://www.w3.org/1999/xlink" x="0px" y="0px"
	 width="283.5px" height="283.5px" viewBox="0 0 283.5 283.5" enable-background="new 0 0 283.5 283.5" xml:space="preserve">
<path fill="#FFFFFF" d="M279.8,117.1c0-12.1-9.5-21.9-21.4-22.5l-69.1-5l-26.7-64.5h0c-3.3-8.4-11.4-14.4-21-14.4
	c-9.6,0-17.7,6-21,14.5h0L94.1,89l-67.9,5.5l0,0C13.9,94.7,4,104.8,4,117.1c0,6.8,3,12.9,7.8,17.1l0,0L65,179.5l-16.5,67.7l0,0
	c-0.4,1.7-0.6,3.5-0.6,5.3c0,12.5,10.1,22.6,22.5,22.6c4.1,0,7.9-1.1,11.1-3l0,0l60-37.1l58.4,36.2l0,0c4,2.6,8.7,3.9,12.7,3.9
	c12.4,0,22.5-10.1,22.5-22.6c0-1.8-0.2-3.6-0.6-5.3l0,0l-16.4-66.6l54-46.5l0,0C276.8,129.9,279.8,123.9,279.8,117.1"/>
<g>
</g>
<g>
</g>
<g>
</g>
<g>
</g>
<g>
</g>
<g>
</g>
</svg>
