<?xml version="1.0" encoding="utf-8"?>
<!-- Generator: Adobe Illustrator 16.0.0, SVG Export Plug-In . SVG Version: 6.00 Build 0)  -->
<!DOCTYPE svg PUBLIC "-//W3C//DTD SVG 1.1//EN" "http://www.w3.org/Graphics/SVG/1.1/DTD/svg11.dtd">
<svg version="1.1" id="Layer_1" xmlns="http://www.w3.org/2000/svg" xmlns:xlink="http://www.w3.org/1999/xlink" x="0px" y="0px"
	 width="283.5px" height="283.5px" viewBox="0 0 283.5 283.5" enable-background="new 0 0 283.5 283.5" xml:space="preserve">
<path fill="#FFFFFF" d="M137.3,118.8c-2,2.1-4.5,4.3-7.5,6.4c-1.7,1.1-4.5,3.5-8.4,7.1c-3.9,3.6-8.3,7.9-13.2,13
	c-1.2,1.2-2.3,3-3.2,5.1c-1,2.2-1.5,3.9-1.5,5.3c0,2.1,0.8,3.8,2.3,5.4c1.5,1.5,3.7,2.3,6.4,2.3h40.5c2.4,0,4.2-0.6,5.4-1.9
	c1.2-1.2,1.8-2.8,1.8-4.6c0-2-0.8-3.6-2.3-4.8c-1.5-1.2-3.7-1.8-6.5-1.8h-28.7c0.9-1.4,1.8-2.6,2.7-3.6c2.1-2.5,5.8-6,11.4-10.5
	c5.5-4.5,9.5-7.8,11.8-9.9c2.3-2.1,4.7-5,6.9-8.7c2.3-3.7,3.4-7.9,3.4-12.4c0-2.9-0.5-5.7-1.6-8.4c-1.1-2.7-2.6-5.1-4.5-7.1
	c-1.9-2-4.2-3.7-6.8-4.8c-4-1.8-8.7-2.6-14.4-2.6c-4.7,0-8.7,0.7-12.2,2.1c-3.5,1.4-6.3,3.2-8.6,5.4c-2.3,2.2-4,4.7-5.1,7.5
	c-1.1,2.8-1.7,5.4-1.7,7.9c0,2.1,0.6,3.7,1.8,4.9c1.2,1.2,2.7,1.8,4.6,1.8c2.1,0,3.7-0.7,4.8-2c1.1-1.3,2.1-3.2,2.9-5.7
	c0.9-2.5,1.5-4,1.8-4.5c2.8-4.2,6.5-6.3,11.3-6.3c2.3,0,4.4,0.5,6.3,1.5c1.9,1,3.5,2.5,4.6,4.3c1.1,1.9,1.7,3.9,1.7,6.3
	c0,2.2-0.5,4.4-1.6,6.6C140.8,114.5,139.3,116.7,137.3,118.8"/>
<path fill="#FFFFFF" d="M203.6,133.9H180l23.7-32V133.9z M209,81.7c-1.7,0-3.2,0.6-4.4,1.7c-1.2,1.2-2.8,3-4.7,5.6l-29.2,39
	c-0.8,1.1-1.5,2-2,2.7c-0.5,0.7-1.1,1.5-1.6,2.3c-0.5,0.8-0.9,1.5-1.2,2.3c-0.3,0.7-0.4,1.4-0.4,2.1c0,2.7,0.9,4.9,2.6,6.4
	c1.7,1.6,4.4,2.4,7.8,2.4h27.6v10.2c0,2.8,0.6,4.8,1.9,6.2c1.3,1.4,2.9,2.1,5,2.1c2.1,0,3.8-0.7,5-2.1c1.2-1.4,1.9-3.5,1.9-6.3
	v-10.2h3.4c2.8,0,4.9-0.5,6.3-1.5c1.4-1,2.1-2.5,2.1-4.7c0-2.6-0.9-4.3-2.6-5.1c-1.7-0.8-4-1.2-6.8-1.2h-2.4V91.3
	C217.4,84.9,214.6,81.7,209,81.7"/>
<path fill="#FFFFFF" d="M143.8,3.8c-26.9,0-52.9,8-75,23.2c-5.7,3.9-7.2,11.7-3.3,17.4c3.9,5.7,11.7,7.2,17.4,3.3
	c18-12.3,39-18.8,60.9-18.8c59.5,0,108,48.4,108,108c0,27.4-10.2,53.5-28.9,73.5c-4.7,5.1-4.4,13,0.6,17.7c2.4,2.2,5.5,3.3,8.5,3.3
	c3.4,0,6.7-1.3,9.2-4c22.9-24.7,35.6-56.8,35.6-90.5C276.8,63.4,217.2,3.8,143.8,3.8"/>
<path fill="#FFFFFF" d="M73.3,210.6c-1.3-1.2-2.8-2.6-4.2-4c-7.8-7.5-13.1-13.7-16.5-18.8C10.7,136.1,14.9,112.9,18,98.1
	c4.2-19.5,16.1-29.1,26.3-37.5c3.4-2.8,7.9-2.5,9.1-1.3c2.2,2.1,4.2,4.3,6.2,6.5c-0.3,0.2-0.6,0.3-0.8,0.5
	c-10.6,7.9-23,16.8-28.2,36.1c-3.9,14.6-9.2,37.6,29.9,91.3c3.2,5.3,8.2,11.7,15.6,19.6c0.1,0.1,0.2,0.3,0.4,0.4
	C75.5,212.7,74.4,211.7,73.3,210.6 M139.9,193.3c-3.2,7,0.1,16.1-12.3,15.9c-5.5-0.1-20.5-15.4-30.7-26.5c-9-10.7-27.9-34-27-40.6
	c1.6-12.4,10.1-7.8,17.5-9.9c2.7-0.8,8.6-45.9-34-91.2c-1.4-1.5-6.7-2.1-10.9,1.1C29.9,51.4,15.3,62.1,9.3,85
	c-4.5,17.3-10.7,44.6,36.1,107.9c3.8,6.2,9.8,13.8,18.6,23.1c1.7,1.8,3.3,3.5,4.8,5c59.2,60.6,88.2,58.4,106.5,56.4
	c23.5-2.6,36.2-15.5,47.3-26.5c3.7-3.7,3.9-9,2.6-10.6C186.5,191.5,141.1,190.7,139.9,193.3"/>
<g>
</g>
<g>
</g>
<g>
</g>
<g>
</g>
<g>
</g>
<g>
</g>
</svg>
