<?xml version="1.0" encoding="utf-8"?>
<!-- Generator: Adobe Illustrator 16.0.0, SVG Export Plug-In . SVG Version: 6.00 Build 0)  -->
<!DOCTYPE svg PUBLIC "-//W3C//DTD SVG 1.1//EN" "http://www.w3.org/Graphics/SVG/1.1/DTD/svg11.dtd">
<svg version="1.1" id="Layer_1" xmlns="http://www.w3.org/2000/svg" xmlns:xlink="http://www.w3.org/1999/xlink" x="0px" y="0px"
	 width="283.5px" height="283.5px" viewBox="0 0 283.5 283.5" enable-background="new 0 0 283.5 283.5" xml:space="preserve">
<path fill="#FFFFFF" d="M140.4,40.4c-5.5,0.7-10.8,2.4-15.7,5c-7.6,4.1-14,10.6-18,18.3c-4,7.6-5.6,16.4-4.7,24.9
	c0.9,9,4.8,17.7,10.8,24.5c6.3,7.2,15.1,12.2,24.5,14c10.3,2,21.3,0.3,30.4-5c8.4-4.8,15.2-12.5,18.8-21.4
	c4.2-10.1,4.4-21.7,0.6-31.9c-3.3-9-9.7-16.9-17.8-22C160.8,41.4,150.4,39.1,140.4,40.4 M142,6.8c12.9-0.6,25.9,1.9,37.5,7.4
	c15.5,7.2,28.6,19.5,36.7,34.5c5.9,10.8,9.2,23.1,9.5,35.4c0.5,16.1-4,32.4-12.8,45.9c-1.2,1.9-2.7,3.6-3.6,5.6
	c-16.7,25.5-33.4,51.1-50.1,76.6c-1.2,1.8-2.4,3.7-3.8,5.5c-2.4,2.9-6.1,4.6-9.9,4.5c-4,0-7.9-2.1-10.1-5.4c-2.4-3.4-4.6-7-6.9-10.4
	c-15.3-23.4-30.6-46.7-45.8-70.1c-0.8-1.4-1.8-2.6-2.7-3.9c-6.2-8.8-10.6-18.9-12.7-29.5c-2.2-10.8-2.2-22.1,0.1-32.9
	c3.7-17.6,13.6-33.7,27.5-45C108.1,14,124.9,7.5,142,6.8"/>
<path fill="#FFFFFF" d="M234,185.2c-2.7,0.3-5.4,1.2-7.8,2.5c-3.8,2.1-7,5.3-9,9.2c-2,3.8-2.8,8.2-2.4,12.5
	c0.5,4.5,2.4,8.9,5.4,12.3c3.2,3.6,7.5,6.1,12.3,7c5.2,1,10.7,0.1,15.2-2.5c4.2-2.4,7.6-6.2,9.4-10.7c2.1-5,2.2-10.9,0.3-16
	c-1.7-4.5-4.8-8.4-8.9-11C244.2,185.7,239,184.5,234,185.2 M234.8,168.3c6.4-0.3,12.9,1,18.8,3.7c7.8,3.6,14.3,9.7,18.3,17.3
	c2.9,5.4,4.6,11.6,4.8,17.7c0.3,8.1-2,16.2-6.4,22.9c-0.6,1-1.3,1.8-1.8,2.8c-8.3,12.8-16.7,25.5-25,38.3c-0.6,0.9-1.2,1.9-1.9,2.7
	c-1.2,1.5-3.1,2.3-5,2.3c-2,0-3.9-1.1-5.1-2.7c-1.2-1.7-2.3-3.5-3.4-5.2c-7.6-11.7-15.3-23.4-22.9-35.1c-0.4-0.7-0.9-1.3-1.4-2
	c-3.1-4.4-5.3-9.5-6.4-14.8c-1.1-5.4-1.1-11,0.1-16.4c1.8-8.8,6.8-16.8,13.7-22.5C217.9,171.9,226.3,168.7,234.8,168.3"/>
<path fill="#FFFFFF" d="M42.3,158.3c-2.7,0.3-5.4,1.2-7.8,2.5c-3.8,2.1-7,5.3-9,9.2c-2,3.8-2.8,8.2-2.4,12.5
	c0.5,4.5,2.4,8.9,5.4,12.3c3.2,3.6,7.5,6.1,12.3,7c5.1,1,10.7,0.1,15.2-2.5c4.2-2.4,7.6-6.2,9.4-10.7c2.1-5,2.2-10.9,0.3-16
	c-1.6-4.5-4.8-8.4-8.9-11C52.5,158.8,47.3,157.6,42.3,158.3 M43.1,141.4c6.4-0.3,12.9,1,18.8,3.7c7.8,3.6,14.3,9.7,18.3,17.3
	c2.9,5.4,4.6,11.6,4.8,17.7c0.3,8.1-2,16.2-6.4,22.9c-0.6,1-1.3,1.8-1.8,2.8c-8.3,12.8-16.7,25.5-25,38.3c-0.6,0.9-1.2,1.9-1.9,2.7
	c-1.2,1.5-3.1,2.3-5,2.3c-2,0-3.9-1.1-5.1-2.7c-1.2-1.7-2.3-3.5-3.4-5.2c-7.6-11.7-15.3-23.4-22.9-35.1c-0.4-0.7-0.9-1.3-1.4-2
	c-3.1-4.4-5.3-9.5-6.4-14.8c-1.1-5.4-1.1-11,0.1-16.4c1.8-8.8,6.8-16.8,13.7-22.5C26.2,145,34.5,141.8,43.1,141.4"/>
<g>
</g>
<g>
</g>
<g>
</g>
<g>
</g>
<g>
</g>
<g>
</g>
</svg>
