<?xml version="1.0" encoding="utf-8"?>
<!-- Generator: Adobe Illustrator 16.0.0, SVG Export Plug-In . SVG Version: 6.00 Build 0)  -->
<!DOCTYPE svg PUBLIC "-//W3C//DTD SVG 1.1//EN" "http://www.w3.org/Graphics/SVG/1.1/DTD/svg11.dtd">
<svg version="1.1" id="Layer_1" xmlns="http://www.w3.org/2000/svg" xmlns:xlink="http://www.w3.org/1999/xlink" x="0px" y="0px"
	 width="283.5px" height="283.5px" viewBox="0 0 283.5 283.5" enable-background="new 0 0 283.5 283.5" xml:space="preserve">
<path fill="#FFFFFF" d="M206.7,267.3H76.1v9.6h130.5V267.3z M195.8,257.2c-2-27.8-25.1-49.7-53.4-49.7c-28.3,0-51.4,21.9-53.4,49.7
	H195.8z M166.5,105.2c-9.1,21.3-18.4,52-21.9,92.8c4.2,0.1,8.4,0.7,12.4,1.7c3.8-44.9,14.7-76.7,24.3-96.9c-0.2-1.1-0.5-2.1-0.7-3.2
	C175.9,102,171.1,103.7,166.5,105.2 M103.6,103c0.3-5.3,0.4-10.9-0.3-17c2.7,1.5,5.5,3.1,8.4,4.6c13,27.2,23.9,62.6,27,107.5
	c-4.3,0.2-8.4,0.9-12.4,2C123.7,160.2,114.7,128.2,103.6,103 M186.9,216.5c2.1,2.1,4.1,4.3,5.9,6.7h57.1v-6.7H186.9z M97.8,216.5
	h-63v6.7h57.1C93.7,220.9,95.7,218.6,97.8,216.5 M250.2,118.5c0.3-27.5-22.2-42.7-46.9-45.8c12.2,0.4,29.4-2.2,36.9,8
	c-4.7-17.3-24.2-30.9-43.4-14.2c6.2-17.6-16.6-35.5-33-31.2c13.1,3.9,11,16.7,21.6,29.3c-4.8-4-11.6-7.9-19.1-10.2
	c-5.3-0.7-13.2-0.2-23.5,4c-2.1,0.8-4.4,1.5-6.8,2.3c2.4,1.7,4.7,3.5,6.9,5.5c10,1.9,22.7,5.5,37.8,4c-5.8,1.4-16.5,4.1-26.8,9.6
	c2.9,5,5.4,10.6,7.1,17.2c10.4-3.2,20.8-6.9,28.7-16.3c-5,23.1,19.5,60.1,14.3,84.2c11.9-26.3,6.9-67-5.8-87.2
	C219.9,105,239.6,105.2,250.2,118.5 M104.2,154.1c-26-26,2.8-52-18.2-92.9c11.9,16.1,59.9,31.5,67.2,46.1
	c-5.8-39-36.9-47.9-63.8-53.9c45.9,9,54.8-15.5,78.5-5.5c-16.3-17.4-53.7-19.5-81.4-0.5c16-16.3,44.4-18.2,55.5-37.7
	c-27-4.9-53.4,16.3-58.8,37.2c1.6-13.3-4.8-33.6,7.9-40.8c-20,0.7-28.6,29.3-18.6,42.4c-19-9.1-36.3,12.4-36.2,27.5
	C44.4,65.8,57.5,59,70.1,55.2c-24,13-40,44.6-35.6,80.5c0.9-21.4,24.6-38.6,38.6-71.6C64.6,90.1,67.9,137.9,104.2,154.1
	 M131.5,101.4c-2.2,4.6-3.7,9.9-4,16c2.8-5.2,6.6-8.8,10.9-11.6C136.3,104.4,134,102.9,131.5,101.4 M86.9,176.1
	c0,14.1-11.4,25.5-25.5,25.5c-14.1,0-25.5-11.4-25.5-25.5c0-14.1,11.4-25.5,25.5-25.5C75.5,150.6,86.9,162,86.9,176.1"/>
<g>
</g>
<g>
</g>
<g>
</g>
<g>
</g>
<g>
</g>
<g>
</g>
</svg>
