<?xml version="1.0" encoding="utf-8"?>
<!-- Generator: Adobe Illustrator 16.0.0, SVG Export Plug-In . SVG Version: 6.00 Build 0)  -->
<!DOCTYPE svg PUBLIC "-//W3C//DTD SVG 1.1//EN" "http://www.w3.org/Graphics/SVG/1.1/DTD/svg11.dtd">
<svg version="1.1" id="Layer_1" xmlns="http://www.w3.org/2000/svg" xmlns:xlink="http://www.w3.org/1999/xlink" x="0px" y="0px"
	 width="283.5px" height="283.5px" viewBox="0 0 283.5 283.5" enable-background="new 0 0 283.5 283.5" xml:space="preserve">
<path fill="#FFFFFF" d="M193.3,84.2c17.1-1.3,34.3-0.7,51.1,2.7c6.5,1.5,13,3.2,18.9,6.5c2.6,1.6,5.5,3.5,6.5,6.6
	c0.8,2.5-0.5,5.2-2.4,6.9c-4,3.9-9.5,5.5-14.7,7.3c-14.6,4.3-30,5.5-45.1,5.5c-16.5-0.3-33.3-1.7-48.8-7.7c-3.4-1.4-6.7-3.1-9.2-5.9
	c-1.7-1.8-2.5-4.5-1.5-6.8c1.3-2.9,4.1-4.6,6.7-6.2c8.1-4.3,17.1-6.1,26-7.6C185,85,189.1,84.4,193.3,84.2"/>
<path fill="#FFFFFF" d="M147.6,116.1c7.2,5.5,16.2,7.8,24.9,9.8c16.5,3.3,33.4,3.9,50.2,2.9c8.5-0.7,17-1.6,25.3-3.7
	c7.8-1.8,15.6-4.2,22-9.1c0,8.5,0.1,17,0,25.4c-0.2,3.9-3.5,6.5-6.6,8.3c-9.6,5.1-20.5,7.1-31.2,8.6c-15.5,1.8-31.2,1.8-46.7,0
	c-8.5-1.1-17.1-2.7-25.1-5.7c-3.9-1.7-8.2-3.4-11-6.8c-1.3-1.5-1.7-3.5-1.7-5.4C147.6,132.3,147.6,124.2,147.6,116.1"/>
<path fill="#FFFFFF" d="M243.7,166.3c9.2-2.1,18.7-4.3,26.3-10.1c0,8.4,0,16.8,0,25.2c-0.1,3.9-3.4,6.6-6.5,8.5
	c-9.9,5.3-21.1,7.2-32.1,8.7c-17.8,1.9-35.8,1.7-53.5-1.2c-7.9-1.4-15.7-3.3-22.9-7c-3.4-1.8-7.3-4.6-7.4-8.9
	c-0.1-8.4,0-16.9,0-25.3c7.7,5.8,17.2,8,26.5,10.1C197,170.4,220.7,170.4,243.7,166.3"/>
<path fill="#FFFFFF" d="M59.8,163.2c13.1-0.6,26.3-0.1,39.3,2c8.3,1.4,16.8,3.3,24.4,7.2c2.8,1.7,6,3.5,7.3,6.7
	c1,2.6-0.4,5.5-2.3,7.3c-4.2,4-9.8,5.6-15.2,7.5c-17.5,4.9-35.9,5.8-54,5.1c-10.9-0.6-21.8-2-32.4-5c-4.9-1.7-10-3.2-14.2-6.4
	c-1.9-1.5-3.7-3.5-3.9-6c-0.2-2.2,1.1-4.2,2.7-5.7c4.2-3.7,9.5-5.6,14.8-7.3C37,165.2,48.4,163.8,59.8,163.2"/>
<path fill="#FFFFFF" d="M8.6,195.5c7.6,5.8,17.1,8,26.2,10c19.8,3.7,40.1,3.9,60,1.6c4.8-0.8,9.6-1.3,14.3-2.6
	c7.7-1.7,15.5-4.2,21.9-9c0,8.1,0,16.2,0,24.3c0,1.9-0.4,4-1.7,5.5c-3,3.7-7.6,5.4-11.8,7.2c-15.3,5.3-31.5,6.6-47.6,6.8
	c-16.1-0.2-32.5-1.5-47.8-6.8c-4.2-1.8-8.7-3.5-11.7-7.1c-1.3-1.5-1.8-3.6-1.8-5.5C8.6,211.7,8.7,203.6,8.6,195.5"/>
<path fill="#FFFFFF" d="M258.1,201.7c4.2-1.5,8.3-3.5,11.9-6.2c0,8.5,0,16.9,0,25.4c-0.1,3.9-3.5,6.6-6.6,8.4
	c-9.5,5.1-20.2,7.1-30.8,8.5c-12.3,1.5-24.6,1.7-37,1c-12-0.9-24.1-2.5-35.4-6.7c-4.1-1.8-8.5-3.5-11.2-7.2
	c-1.2-1.4-1.4-3.3-1.4-5.1c0-8.1,0-16.2,0-24.3c7.7,5.8,17.2,8.1,26.5,10.1c14.8,2.7,29.9,3.5,44.9,2.8
	C232.2,207.7,245.5,206,258.1,201.7"/>
<path fill="#FFFFFF" d="M147.6,234.8c7.1,5.4,15.9,7.7,24.5,9.7c12.5,2.6,25.3,3.5,38.1,3.5c13.6-0.2,27.3-1.3,40.6-4.8
	c6.8-1.7,13.6-4.2,19.2-8.4c0,8.5,0,16.9,0,25.4c-0.1,3.9-3.5,6.5-6.6,8.4c-9.5,5.1-20.3,7-30.9,8.5c-15.6,1.8-31.4,1.8-47,0
	c-10.8-1.5-21.7-3.4-31.4-8.7c-3-1.8-6.3-4.4-6.4-8.2C147.5,251.8,147.7,243.3,147.6,234.8"/>
<path fill="#FFFFFF" d="M8.6,258.1c0-7.5,0-15,0-22.4c7.6,5.8,17.1,8,26.2,10c18.5,3.4,37.5,3.9,56.2,2c4.4-0.3,8.8-1.3,13.2-1.9
	c9.4-2,19.1-4.3,26.8-10.1c0,8.4,0,16.7,0,25.1c0,3.6-2.8,6.2-5.6,8c-4.8,2.9-10.1,4.6-15.5,6.1c-16.4,4-33.4,4.9-50.3,4.2
	c-9.2-0.6-18.5-1.5-27.5-3.7c-5.9-1.3-11.7-3.2-17.1-6.1c-2.2-1.3-4.4-2.9-5.6-5.2C8.5,262.2,8.6,260.1,8.6,258.1"/>
<path fill="#FFFFFF" d="M130.1,10.3c2.5-2.6,5.1-6.5,9.2-5.8c3.9,1.3,7,4.1,10.2,6.6c2.1,1.9,4.9,3.9,5.1,7c0.2,3.2-2,5.8-3.7,8.4
	c-24.8,35.5-50,70.8-75.2,106c-1.8,2.2-3.2,5.4-6.4,5.8c-3.8,0.8-6.7-2.1-8.8-4.8c-13.1-15.7-27-30.9-39.7-46.9
	c-4.1-5.5-9.4-10.4-11.8-16.9c-2.2-6.5,4.2-11.4,8.5-15.2c3.5-3.4,8.8-2.7,12.3,0.3C42.3,64.3,53,75.9,65.1,85.9
	C86.8,60.7,108.5,35.5,130.1,10.3"/>
<g>
</g>
<g>
</g>
<g>
</g>
<g>
</g>
<g>
</g>
<g>
</g>
</svg>
