<?xml version="1.0" encoding="utf-8"?>
<!-- Generator: Adobe Illustrator 16.0.0, SVG Export Plug-In . SVG Version: 6.00 Build 0)  -->
<!DOCTYPE svg PUBLIC "-//W3C//DTD SVG 1.1//EN" "http://www.w3.org/Graphics/SVG/1.1/DTD/svg11.dtd">
<svg version="1.1" id="Layer_1" xmlns="http://www.w3.org/2000/svg" xmlns:xlink="http://www.w3.org/1999/xlink" x="0px" y="0px"
	 width="283.5px" height="283.5px" viewBox="0 0 283.5 283.5" enable-background="new 0 0 283.5 283.5" xml:space="preserve">
<path fill="#FFFFFF" d="M83.6,20c25.1-0.4,42.5,4.8,49.6,19.8c1.7,3.6,2.9,11.9,1.1,16.9c-1.4,4-3.7,9-6.3,12.5
	c-13.3,18.5-75.2,40.6-109.6,41V81.2c5.1,0,37.1-1,41.1-1.9c5.2-1.2,9.3-0.7,14.3-1.9c15.3-4,28.1-8.8,39.4-15.9
	c6.3-4,15-14.1,8-23.1c-8-10.4-23.2-11.6-37.6-16.9V20z"/>
<path fill="#FFFFFF" d="M173.1,51.3c16.3-0.2,30,5.5,39.9,11.1c4.1,2.3,10.7,5.3,8.6,12.5c-6,20.4-32.6,26.6-45.6,41.4
	c-8.8,10-8.9,26.2-17.1,36.6c-4.3,5.4-10.6,9.4-17.1,13c-24.5,13.8-95.4,20.1-136,19.3v-40c33.4,0.5,105-9.9,125.7-20.8
	c6.4-3.4,18.3-6.9,19.4-14.5c-3.5-2.6-10.5-3.7-10.8-8.7c0.5-0.5,0.2-0.1,0.6-1c12.4-6.5,28.3-11.7,42.2-16.9
	c9.5-3.5,18.3-5.5,25.1-11.1v-3.4c-1.6-1.3-2.2-3.7-4-4.8c-6.2-4-21.5-10.4-30.8-11.1V51.3z"/>
<path fill="#FFFFFF" d="M18.5,216.8c40.9,0.3,111,1.5,136.4-12.8c5.1-2.9,11.2-8,13.7-13c1.3-2.6,1.1-10.3,4-11.6
	c3.4-1.9,8.6-1.5,12.5-2.9c10-3.4,28.3-11.2,23.4-26.5c-1-3.1-3.1-5.4-3.4-9.2h0.6v-0.5c18.4-0.3,52.1-8.2,55.9-20.2
	c2.2-7.1-8.3-13.5-4-19.8c2-4.6,8.1-4.8,9.1-10.6c-0.5-0.5-0.2-0.1-0.6-1c-2.2-1.1-4.7-2.7-7.4-3.4c-2.8-0.7-5.4,0.2-7.4-1
	c-0.4-0.5-0.3-0.5-0.6-1.4c1.8-0.5,4.8-0.5,7.4-0.5c5.2,2.9,13.8,1.8,16,7.2c0.5,0.6,0.5,1.2,0.6,2.4c-2.6,2.4-4.1,5.5-6.8,7.7
	c-0.1,4.7,0,8.2,2.3,12c1.3,2.2,5.2,5,3.4,9.6c-4.2,10.9-16.9,15.8-23.4,24.6c-2.3,3.1-3.4,8.2-4.6,12c-1.1,3.7,0.2,6.9-1.1,10.1
	c-4.7,10.9-18.8,17-33.1,19.8c-7.9,11.4-13.9,23-22.8,33.3c-24.2,27.6-73.5,46.9-130,47.2C58.2,269.4,18.5,233.5,18.5,216.8"/>
<g>
</g>
<g>
</g>
<g>
</g>
<g>
</g>
<g>
</g>
<g>
</g>
</svg>
