<?xml version="1.0" encoding="utf-8"?>
<!-- Generator: Adobe Illustrator 16.0.0, SVG Export Plug-In . SVG Version: 6.00 Build 0)  -->
<!DOCTYPE svg PUBLIC "-//W3C//DTD SVG 1.1//EN" "http://www.w3.org/Graphics/SVG/1.1/DTD/svg11.dtd">
<svg version="1.1" id="Layer_1" xmlns="http://www.w3.org/2000/svg" xmlns:xlink="http://www.w3.org/1999/xlink" x="0px" y="0px"
	 width="283.5px" height="283.5px" viewBox="0 0 283.5 283.5" enable-background="new 0 0 283.5 283.5" xml:space="preserve">
<path fill="#FFFFFF" d="M137.1,230.9H127l5.6,17c0.7,2,2.5,3.3,4.6,3.3c0.5,0,1-0.1,1.5-0.2c2.5-0.8,3.9-3.6,3.1-6.1L137.1,230.9z
	 M116.7,199.9h10.1l-23-69.6l80.9-26.1c2.5-0.8,3.9-3.5,3.1-6.1c-0.8-2.5-3.5-3.9-6.1-3.1l-169,54.6c-2.5,0.8-3.9,3.5-3.1,6.1
	c0.7,2,2.5,3.3,4.6,3.3c0.5,0,1-0.1,1.5-0.2l78.9-25.5L116.7,199.9z M140.9,98.4l40.9-13.2c-20-24.3-50.8-37.9-82.7-35.9
	C114.3,57.5,129.4,74.8,140.9,98.4 M66.5,47.3c1.4-0.8,2.9-1.4,4.5-1.9c1.5-0.5,3.1-0.8,4.7-1.1l-1-2.9c-0.8-2.5-3.6-3.9-6.1-3.1
	c-2.5,0.8-3.9,3.6-3.1,6.1L66.5,47.3z M45.2,129.3L6.7,141.8c2-30.5,18-58.7,43.6-75.9C43.3,81.1,41.3,103.4,45.2,129.3
	 M212.9,177.3c-4.3-2.1-9.5-0.3-11.6,4c-0.5,1-12.9,25.4-48.1,25.4H98.5c-33.9,0-56.2,5.2-77.2,32.8c-2.9,3.8-2.2,9.2,1.6,12.1
	c1.6,1.2,3.4,1.8,5.2,1.8c2.6,0,5.2-1.2,6.9-3.4c15.2-19.9,30-26,63.5-26h54.8c46.5,0,63-33.8,63.7-35.2
	C219,184.5,217.2,179.4,212.9,177.3 M163.4,230.7l0,21.7l12.5,0l0-21.7L163.4,230.7z M131.7,101.4l-77.2,24.9
	C49.3,89.6,57.1,60,73.9,54.6C88.7,49.8,113.4,64.7,131.7,101.4"/>
<path fill="#FFFFFF" d="M254.1,82.6c-0.7,1.5-1.5,2.8-2.7,3.9c-1.1,1.1-2.4,2-4,2.6c-1.5,0.6-3.2,1-4.9,1c-1.7,0-3.4-0.3-4.9-1
	c-1.5-0.6-2.8-1.5-4-2.6c-1.1-1.1-2-2.4-2.7-3.9c-0.7-1.5-1-3.1-1-4.9c0-1.7,0.3-3.4,1-4.9c0.7-1.5,1.6-2.9,2.7-4
	c1.1-1.1,2.5-2,4-2.7c1.5-0.6,3.1-1,4.9-1c1.7,0,3.4,0.3,4.9,1c1.5,0.6,2.8,1.5,4,2.7c1.1,1.1,2,2.5,2.7,4c0.7,1.5,1,3.2,1,4.9
	C255,79.4,254.7,81.1,254.1,82.6 M279,75.4c-0.6-0.6-1.4-0.9-2.3-0.9h-13.6c-0.6-0.1-1.1-0.4-1.5-0.8c-0.4-0.5-0.6-1-0.6-1.5
	c0-0.9,0.4-1.6,1.2-2.1l11.4-6.7c1.1-0.6,1.6-1.6,1.6-2.7c0-0.6-0.1-1.1-0.4-1.6c-0.3-0.5-0.7-1-1.2-1.2c-0.5-0.3-1-0.4-1.6-0.4
	c-0.6,0-1.1,0.1-1.6,0.4l-11.6,6.6c-0.3,0.1-0.5,0.1-0.8,0.1c-0.5,0-0.9-0.1-1.3-0.4c-0.4-0.2-0.7-0.5-0.9-0.8
	c-0.2-0.4-0.3-0.8-0.3-1.2c0-0.4,0.1-0.8,0.3-1.2l6.5-11.4c0.3-0.5,0.4-1,0.4-1.6c0-0.5-0.1-1.1-0.4-1.6c-0.3-0.5-0.7-0.9-1.2-1.3
	c-0.4-0.3-0.9-0.4-1.5-0.4c-0.6,0-1.1,0.1-1.7,0.4c-0.5,0.3-0.9,0.7-1.2,1.2L250,58.1c-0.2,0.4-0.5,0.6-0.8,0.7
	c-0.4,0.1-0.7,0.2-1.1,0.2c-0.7,0-1.3-0.2-1.8-0.7c-0.5-0.5-0.7-1-0.7-1.7V43.4c0-0.9-0.3-1.6-0.9-2.2c-0.6-0.6-1.4-0.9-2.3-0.9
	c-0.9,0-1.7,0.3-2.3,0.9c-0.6,0.6-0.9,1.3-0.9,2.2c0,2.5,0,4.8,0,6.8v2.5c0,0.8,0,1.5,0,2.2c0,0.6,0,1.2,0,1.5V57
	c-0.2,0.7-0.6,1.3-1.2,1.7c-0.4,0.2-0.8,0.3-1.2,0.3c-0.9,0-1.5-0.4-2-1.3l-6.7-11.4c-0.3-0.5-0.7-0.9-1.2-1.2
	c-0.5-0.3-1.1-0.4-1.6-0.4c-0.6,0-1.1,0.1-1.6,0.4c-0.5,0.3-1,0.7-1.2,1.2c-0.3,0.5-0.4,1-0.4,1.6c0,0.5,0.2,1.1,0.5,1.6
	c1.2,2.1,2.3,4.1,3.3,5.8c0.4,0.7,0.8,1.5,1.2,2.2c0.4,0.7,0.7,1.3,1.1,1.9c0.3,0.6,0.6,1,0.8,1.4l0.3,0.5c0.1,0.3,0.1,0.5,0.1,0.8
	c0,0.4-0.1,0.8-0.3,1.2c-0.5,0.8-1.2,1.2-2.1,1.2c-0.4,0-0.8-0.1-1.2-0.3l-11.3-6.4c-0.5-0.3-1.1-0.4-1.6-0.4c-0.9,0-1.7,0.3-2.3,1
	c-0.6,0.7-1,1.4-1,2.2c0,1.2,0.5,2.1,1.6,2.7l11.7,6.9c0.6,0.4,0.9,1.1,0.9,1.9c0,0.6-0.2,1.2-0.7,1.7c-0.5,0.5-1,0.7-1.7,0.7h-13.2
	c-0.9,0-1.7,0.3-2.3,0.9c-0.6,0.6-1,1.4-1,2.3c0,0.9,0.3,1.7,1,2.3c0.6,0.6,1.4,0.9,2.3,0.9h13.5c0.4,0.1,0.7,0.2,1,0.4
	c0.3,0.2,0.6,0.5,0.8,0.8c0.2,0.4,0.3,0.7,0.3,1.1c0,0.4-0.1,0.8-0.3,1.2c-0.2,0.4-0.5,0.7-0.8,1L211.3,92c-0.5,0.3-1,0.7-1.2,1.2
	c-0.3,0.5-0.4,1-0.4,1.6c0,0.6,0.1,1.1,0.4,1.6c0.3,0.5,0.7,1,1.2,1.2c0.5,0.3,1,0.4,1.6,0.4c0.5,0,1.1-0.1,1.6-0.4l11.6-6.6
	c0.3-0.2,0.7-0.3,1.1-0.3c0.6,0,1.1,0.2,1.6,0.7c0.4,0.5,0.7,1.1,0.7,1.8c0,0.4-0.1,0.8-0.3,1.2l-6.5,11.4c-0.3,0.6-0.5,1.1-0.5,1.6
	c0,0.5,0.1,1.1,0.4,1.6c0.3,0.5,0.7,0.9,1.2,1.2c0.5,0.3,1,0.4,1.6,0.4c0.6,0,1.1-0.1,1.6-0.4c0.5-0.3,0.9-0.7,1.2-1.2l6.8-11.7
	c0.5-0.6,1.1-0.9,1.9-0.9c0.7,0,1.3,0.2,1.7,0.7c0.5,0.5,0.7,1,0.7,1.7v13.2c0,0.9,0.3,1.7,0.9,2.3c0.6,0.6,1.3,0.9,2.2,0.9
	c0.9,0,1.7-0.3,2.3-0.9c0.6-0.6,1-1.4,1-2.3V98.2c0.1-0.6,0.4-1.1,0.9-1.5c0.5-0.4,1-0.5,1.5-0.5c0.4,0,0.8,0.1,1.2,0.3
	c0.4,0.2,0.7,0.5,0.9,0.9l6.6,11.5c0.3,0.5,0.7,0.9,1.2,1.2c0.5,0.3,1.1,0.4,1.7,0.4c0.6,0,1.1-0.1,1.5-0.4c0.5-0.3,1-0.7,1.2-1.2
	c0.3-0.5,0.4-1,0.4-1.6c0-0.5-0.1-1.1-0.4-1.6c-1.2-2.1-2.4-4.1-3.3-5.8c-0.4-0.7-0.8-1.5-1.2-2.2c-0.4-0.7-0.8-1.3-1.1-1.9
	c-0.3-0.5-0.6-1-0.8-1.4l-0.3-0.5c-0.1-0.2-0.1-0.5-0.1-0.8c0-0.4,0.1-0.8,0.3-1.2c0.4-0.8,1.1-1.2,2-1.2c0.4,0,0.8,0.1,1.2,0.3
	l11.4,6.4c0.5,0.3,1.1,0.4,1.7,0.4c0.5,0,1.1-0.1,1.6-0.4c0.5-0.3,0.9-0.6,1.2-1.2c0.3-0.5,0.4-1.1,0.4-1.6c0-0.5-0.1-1.1-0.4-1.6
	c-0.3-0.5-0.7-0.9-1.2-1.2c-2.2-1.2-4.1-2.4-5.9-3.4c-0.7-0.4-1.5-0.8-2.2-1.2c-0.7-0.4-1.3-0.8-1.9-1.1c-0.5-0.3-1-0.6-1.3-0.8
	l-0.5-0.3c-0.3-0.2-0.5-0.5-0.7-0.8c-0.2-0.3-0.3-0.7-0.3-1.1c0-0.6,0.2-1.2,0.7-1.7c0.5-0.5,1-0.7,1.7-0.7h13.3
	c0.9,0,1.7-0.3,2.3-0.9c0.6-0.6,0.9-1.4,0.9-2.3C280,76.8,279.6,76,279,75.4"/>
<g>
</g>
<g>
</g>
<g>
</g>
<g>
</g>
<g>
</g>
<g>
</g>
</svg>
