<?xml version="1.0" encoding="utf-8"?>
<!-- Generator: Adobe Illustrator 19.2.1, SVG Export Plug-In . SVG Version: 6.00 Build 0)  -->
<svg version="1.1" id="Layer_1" xmlns="http://www.w3.org/2000/svg" xmlns:xlink="http://www.w3.org/1999/xlink" x="0px" y="0px"
	 viewBox="0 0 283.5 283.5" style="enable-background:new 0 0 283.5 283.5;" xml:space="preserve">
<style type="text/css">
	.st0{fill:#FFFFFF;}
</style>
<g>
	<path class="st0" d="M129.2,131.9c2.4-1.6,4.6-3,6.6-4.3c4.8-2.9,6.3-9.1,3.4-13.9c-2.9-4.8-9.1-6.3-13.9-3.4
		c-2.2,1.3-4.7,3-7.3,4.7c-8.5,5.6-21.4,14.4-28.7,12.3c-5.3-1.5-5.9-5.1-7.7-7.8c-3.8-6.9-11.7-11.5-18.9-11.4c0,0-6.4,0-14.3,3.1
		c-35.3,12.6-35.4,20.9-35.4,25c0,3.7,0.1,7.3,10.5,13.4H9.5l0,117.6h88.1l5.8-53.8c0,0-29.2-2.2-43.8-4.3
		c-17.5-2.5-20.5-18.6-20.5-18.6L30,153.1c5.2,2.5,12,5.4,20.9,8.9c1.2,0.5,2.4,0.7,3.6,0.7c4.1,0,7.9-2.5,9.4-6.5
		c2-5.2-0.6-11.1-5.8-13.1c-5.5-2.1-11.7-4.7-16.7-7.1c0.9-0.4,1.8-0.8,2.8-1.2l14.1,5.6c8.5,3.3,10.9,10.2,8.4,16.7
		c-1.9,4.9-7.6,11-17.5,7c-3.1-1.2-5.9-2.3-8.5-3.4l4.4,28.5c1.2,8.1,6.2,12.3,14.9,14.6c4.2,1.7,49.4,5.2,49.4,5.2
		c-1.5,17.7-4.6,46.8-5,50.2c-1,7.1,3.6,13.8,10.6,15.4c1,0.2,2,0.3,3,0.3c6.3,0,12-4.4,13.4-10.8c0.6-2.7,5.9-65.9,6-66.6
		c0.3-3.8-1.1-8-3.7-10.9c-3.3-3.6-6.3-6.9-41.8-8.1l-4.8-31.3c1.4,0.2,2.9,0.4,4.3,0.4C105.1,147.9,118.8,138.8,129.2,131.9
		L129.2,131.9z M129.2,131.9"/>
	<path class="st0" d="M84.6,80.9c0,14.4-11.7,26.1-26.1,26.1c-14.4,0-26.1-11.7-26.1-26.1c0-14.4,11.7-26.1,26.1-26.1
		C72.9,54.8,84.6,66.5,84.6,80.9L84.6,80.9z M84.6,80.9"/>
	<path class="st0" d="M276.1,149.7H262c10.4-6.1,10.5-9.7,10.5-13.4c0-4.1-0.1-12.4-35.4-25c-7.8-3.1-14.3-3.1-14.3-3.1
		c-7.2-0.2-15.2,4.4-18.9,11.4c-1.7,2.6-2.4,6.3-7.7,7.8c-7.2,2-20.2-6.7-28.7-12.3c-2.6-1.7-5.1-3.4-7.3-4.7
		c-4.8-2.9-11-1.4-13.9,3.4c-2.9,4.8-1.4,11,3.4,13.9c2,1.2,4.2,2.7,6.6,4.3c10.4,6.9,24,15.9,37.8,15.9c1.4,0,2.9-0.1,4.3-0.4
		l-4.8,31.3c-35.5,1.2-38.5,4.4-41.8,8.1c-2.6,2.8-4.1,7-3.7,10.9c0,0.6,5.3,63.9,6,66.6c1.4,6.4,7.1,10.8,13.4,10.8
		c1,0,2-0.1,3-0.3c7.1-1.6,11.6-8.4,10.6-15.4c-0.4-3.4-3.5-32.4-5-50.2c0,0,45.2-3.4,49.4-5.2c8.6-2.3,13.6-6.5,14.9-14.6l4.4-28.5
		c-2.6,1.1-5.4,2.2-8.5,3.4c-10,3.9-15.7-2.2-17.5-7c-2.5-6.6-0.1-13.5,8.4-16.7l14.1-5.6c0.9,0.4,1.9,0.8,2.8,1.2
		c-5.1,2.3-11.2,4.9-16.7,7.1c-5.2,2-7.8,7.9-5.8,13.1c1.6,4,5.4,6.5,9.4,6.5c1.2,0,2.4-0.2,3.6-0.7c8.9-3.4,15.7-6.4,20.9-8.9
		l-9.1,37.5c0,0-3.1,16.1-20.5,18.6c-14.5,2.1-43.8,4.3-43.8,4.3l5.8,53.8h88.1L276.1,149.7z M276.1,149.7"/>
	<path class="st0" d="M253.1,80.9c0,14.4-11.7,26.1-26.1,26.1c-14.4,0-26.1-11.7-26.1-26.1c0-14.4,11.7-26.1,26.1-26.1
		C241.5,54.8,253.1,66.5,253.1,80.9L253.1,80.9z M253.1,80.9"/>
</g>
<g>
	<path class="st0" d="M162.3,85.9c1.2-0.8,2.1-2.4,2.1-4.1l0-0.8c5.6,0.5,9.4,1.4,9.4,2.6C173.8,84.4,169.4,85.6,162.3,85.9
		 M144.9,61.6c-8.5-0.1-15.3-1-15.3-2.6c0-1.2,5.6-2,13-2.3c-0.6,1.6-1.2,2.4-1.2,2.4c1.2-0.8,1.8-1.6,1.8-2.4l1.7,0l0.3,0
		c-0.9,2-2.1,3.2-2.1,3.2c1.8-0.8,2.9-2,3.6-3.2c7.6,0.5,13.6,1.4,13.5,2.6C160.3,61,153.5,61.7,144.9,61.6 M116.1,82.9
		c0-1.2,3.6-2,9.2-2.4l0,0.8c0,1.7,0.9,3.3,2.6,4.1C120.8,85,116.1,83.8,116.1,82.9 M182.4,83.7c0-1.7-7.3-3-17.9-3.9l0-2.5l-0.3,0
		l0-2.4l0-0.4l0.1-9.8l0-2.4l0.3,0l0-2.9c0-2.1-7.3-4.2-15.9-5.1c3.9-2,0.4-8.6,0.4-8.6c-4.3-7.4-0.5-9,1.3-9.4
		c-8.2,1.1-3,7.7-3,7.7c4.3,5.4,1.9,9,0.8,10.2l-1.2,0c0-4.1-2.8-9-2.8-9c-8.1-10.7-2.2-13.9,0.5-14.7C132,33.6,141,43.2,141,43.2
		c0.3,0.4,0.3,0.4,0.6,0.8c3.5,4.1,4.3,7.4,4.3,10.3l-0.9,0l-2,0c-0.3-1.6-1.1-2.9-1.1-2.9c-3.8-4.9-1.7-6.6-0.2-7.4
		c-5.9,1.6-1.6,6.5-1.6,6.5c1.5,1.3,2.1,2.5,2.3,3.7c-8.8,0.3-16.8,2.6-16.9,4.7l-0.2,20.4c-10.6,0.7-17.7,1.8-17.7,3.5
		c0,0.4,1.5,1.2,3.5,1.7c2.6,1.2,7.4,2.9,13.5,4.2c3.5,2.5,11.4,4.2,20.3,4.3c9.7,0.1,18-1.8,21.3-4.3c4.1-1.2,8-1.9,12.4-3.5
		c1.5-0.4,3-0.8,3.3-1.2c0.1,0,0.2,0,0.3,0C182.1,83.7,182.4,83.7,182.4,83.7"/>
</g>
</svg>
