<?xml version="1.0" encoding="utf-8"?>
<!-- Generator: Adobe Illustrator 19.2.1, SVG Export Plug-In . SVG Version: 6.00 Build 0)  -->
<svg version="1.1" id="Layer_1" xmlns="http://www.w3.org/2000/svg" xmlns:xlink="http://www.w3.org/1999/xlink" x="0px" y="0px"
	 viewBox="0 0 283.5 283.5" style="enable-background:new 0 0 283.5 283.5;" xml:space="preserve">
<style type="text/css">
	.st0{fill:#FFFFFF;}
</style>
<path class="st0" d="M55,153.4c0-3.8-3.2-6.1-10.6-8.6c-10.6-3.6-17.8-8.5-17.8-18.1c0-8.8,6.1-15.6,16.7-17.6v-9.4h9.7v8.7
	c6.5,0.2,11,1.7,14.4,3.3l-3,11.2c-2.5-1.2-7.1-3.5-14.2-3.5c-6.4,0-8.5,2.9-8.5,5.6c0,3.2,3.5,5.3,12,8.4
	c11.8,4.2,16.4,9.6,16.4,18.6c0,8.8-6.1,16.3-17.5,18.2v10.2h-9.8V171c-6.6-0.3-13-2.2-16.8-4.3l3-11.6c4.2,2.3,10,4.3,16.4,4.3
	C51.2,159.5,55,157.2,55,153.4z M155.6,206.4l-7,15.7c-1.7,3.9-3,7.6-4.2,10.9h-0.2c-1.3-3.5-2.4-6.8-4.1-10.8l-6.9-15.8H117
	l16.1,28.1h-11.9v7h15.4v6.3h-15.4v7h15.4v15.8h14.1v-15.8h15.5v-7h-15.5v-6.3h15.5v-7h-11.8l16.9-28.1H155.6z M166.8,66.1
	l-26.4-0.2v-0.2c2.4-2,4-4.5,4.9-7c0.7-2.3,1-4.6,1-7l12.3,0.1l0.1-10.3l-13.5-0.1c-0.6-2.5-0.9-4.8-0.9-7.3c0-4.8,2.2-9.3,9.3-9.2
	c3.6,0,6.4,0.7,8.4,1.8l2.5-11.3c-2.2-1.2-6.2-2.4-11.6-2.5c-13.3-0.1-22.4,8-22.5,20.4c0,2.8,0.3,5.5,0.7,8l-7.9-0.1l-0.1,10.3
	l9.7,0.1c0.2,1.3,0.2,2.6,0.2,3.9c-0.1,6.7-5.8,12.3-11.1,14.4l-0.1,8l45.1,0.4L166.8,66.1z M93.2,39.1
	c-21.9,10.7-40,28.1-51.6,49.5c2.1-0.3,4.3-0.5,6.5-0.5c4.4,0,8.6,0.6,12.7,1.6C69.1,77,80.3,66.3,93.4,58.4c-0.7-3.5-1.1-7-1-10.7
	C92.4,44.8,92.7,41.9,93.2,39.1z M229.9,93.4c3.7-0.8,7.5-1.3,11.4-1.3c2.6,0,5.2,0.3,7.6,0.6c-11.4-23.3-30.4-42.2-53.7-53.6
	c0.5,3.1,0.9,6.2,0.8,9.4c0,3.4-0.4,6.7-1.1,9.9C209.3,67,221.4,79,229.9,93.4z M93.2,229.3c-15.4-9.2-28.1-22.4-36.6-38.2
	c-2.8,0.5-5.6,0.8-8.5,0.8c-3.6,0-7.2-0.4-10.6-1.1c11.2,25.4,31.1,46,55.9,58.1c-0.7-3.3-1-6.8-1-10.3
	C92.4,235.4,92.7,232.3,93.2,229.3z M229.9,194.5c-8.5,14.3-20.4,26.3-34.7,34.9c0.5,3,0.9,6,0.9,9.2c0,3.5-0.4,7-1,10.4
	c23.4-11.4,42.4-30.3,53.9-53.7c-2.5,0.4-5,0.6-7.6,0.6C237.3,195.8,233.5,195.3,229.9,194.5z M245.2,122.6c4.3,0,8.5,1.3,11.1,2.4
	l2.8-11.3c-3.6-1.6-8.9-3-14.8-3c-9.4,0-17.3,3.8-22.8,10.2c-3.2,3.6-5.6,8.1-6.8,13.4h-6.6v7h5.5c0,1-0.1,2-0.1,3
	c0,0.6,0,1.2,0,1.7h-5.4v7h6.4c0.9,5.2,2.9,9.5,5.5,12.9c5.5,7.3,14.3,11.3,24.1,11.3c6.3,0,12.1-1.9,15.4-3.7l-2.4-11
	c-2.1,1.1-6.7,2.6-11.3,2.6c-4.9,0-9.6-1.5-12.8-5c-1.5-1.7-2.6-3.9-3.3-6.9h24.8v-7h-26.2c0-0.5,0-1,0-1.6c0-1.1,0-2.1,0.1-3.1
	h26.1v-7h-24.6c0.7-2.6,1.7-4.8,3.2-6.4C236.2,124.3,240.5,122.6,245.2,122.6z"/>
</svg>
