<?xml version="1.0" encoding="utf-8"?>
<!-- Generator: Adobe Illustrator 19.2.1, SVG Export Plug-In . SVG Version: 6.00 Build 0)  -->
<svg version="1.1" id="Layer_1" xmlns="http://www.w3.org/2000/svg" xmlns:xlink="http://www.w3.org/1999/xlink" x="0px" y="0px"
	 viewBox="0 0 283.5 283.5" style="enable-background:new 0 0 283.5 283.5;" xml:space="preserve">
<style type="text/css">
	.st0{fill:#FFFFFF;}
	.st1{fill:#DA2128;}
</style>
<g>
	<path class="st0" d="M74.5,75.7L74.5,75.7c0,9.6,6.6,17.3,16.1,17.3c9.6,0,16.1-7.7,16.1-17.3h0v-5.6h71.6v5.6
		c0,9.6,6.6,17.3,16.1,17.3c9.6,0,16.1-7.7,16.1-17.3v-5.6h35.8v173H38.7v-173h35.8V75.7z M275.1,58.6c0-9.6-7.8-17.3-17.3-17.3h0
		h-47.2V29.9v0c0-9.6-6.6-17.3-16.1-17.3c-9.5,0-16.1,7.7-16.1,17.3v0v11.5h-71.6V29.9v0c0-9.6-6.6-17.3-16.1-17.3
		c-9.5,0-16.1,7.7-16.1,17.3v0v11.5H27.2h0c-9.6,0-17.3,7.7-17.3,17.3c0,0,0,0,0,0h0v196h0c0,9.6,7.8,17.3,17.3,17.3h0h0h230.6
		c9.6,0,17.3-7.7,17.3-17.3h0V58.6L275.1,58.6z"/>
	<path class="st0" d="M63.4,152.3c0,0-4.9,0-4.9,4.9v23c0,0,0,4.9,4.9,4.9h25.9c0,0,4.9,0,4.9-4.9v-23c0,0,0-4.9-4.9-4.9H63.4z"/>
	<path class="st0" d="M63.4,195.2c0,0-4.9,0-4.9,4.9v23c0,0,0,4.9,4.9,4.9h25.9c0,0,4.9,0,4.9-4.9v-23c0,0,0-4.9-4.9-4.9H63.4z"/>
	<path class="st0" d="M108.5,107.9c0,0-4.9,0-4.9,4.9v23c0,0,0,4.9,4.9,4.9h25.9c0,0,4.9,0,4.9-4.9v-23c0,0,0-4.9-4.9-4.9H108.5z"/>
	<path class="st0" d="M108.5,152.3c0,0-4.9,0-4.9,4.9v23c0,0,0,4.9,4.9,4.9h25.9c0,0,4.9,0,4.9-4.9v-23c0,0,0-4.9-4.9-4.9H108.5z"/>
	<path class="st0" d="M108.5,195.2c0,0-4.9,0-4.9,4.9v23c0,0,0,4.9,4.9,4.9h25.9c0,0,4.9,0,4.9-4.9v-23c0,0,0-4.9-4.9-4.9H108.5z"/>
	<path class="st0" d="M153.7,107.9c0,0-4.9,0-4.9,4.9v23c0,0,0,4.9,4.9,4.9h25.9c0,0,4.9,0,4.9-4.9v-23c0,0,0-4.9-4.9-4.9H153.7z"/>
	<path class="st1" d="M153.7,152.3c0,0-4.9,0-4.9,4.9v23c0,0,0,4.9,4.9,4.9h25.9c0,0,4.9,0,4.9-4.9v-23c0,0,0-4.9-4.9-4.9H153.7z"/>
	<path class="st1" d="M153.7,195.2c0,0-4.9,0-4.9,4.9v23c0,0,0,4.9,4.9,4.9h25.9c0,0,4.9,0,4.9-4.9v-23c0,0,0-4.9-4.9-4.9H153.7z"/>
	<path class="st0" d="M198.8,107.9c0,0-4.9,0-4.9,4.9v23c0,0,0,4.9,4.9,4.9h25.9c0,0,4.9,0,4.9-4.9v-23c0,0,0-4.9-4.9-4.9H198.8z"/>
	<path class="st0" d="M198.8,152.3c0,0-4.9,0-4.9,4.9v23c0,0,0,4.9,4.9,4.9h25.9c0,0,4.9,0,4.9-4.9v-23c0,0,0-4.9-4.9-4.9H198.8z"/>
	<path class="st1" d="M198.8,195.2c0,0-4.9,0-4.9,4.9v23c0,0,0,4.9,4.9,4.9h25.9c0,0,4.9,0,4.9-4.9v-23c0,0,0-4.9-4.9-4.9H198.8z"/>
</g>
</svg>
