<?xml version="1.0" encoding="utf-8"?>
<!-- Generator: Adobe Illustrator 16.0.0, SVG Export Plug-In . SVG Version: 6.00 Build 0)  -->
<!DOCTYPE svg PUBLIC "-//W3C//DTD SVG 1.1//EN" "http://www.w3.org/Graphics/SVG/1.1/DTD/svg11.dtd">
<svg version="1.1" id="Layer_1" xmlns="http://www.w3.org/2000/svg" xmlns:xlink="http://www.w3.org/1999/xlink" x="0px" y="0px"
	 width="283.5px" height="283.5px" viewBox="0 0 283.5 283.5" enable-background="new 0 0 283.5 283.5" xml:space="preserve">
<g>
	<path fill="#FFFFFF" d="M9.8,170.4L2.5,99.8c-0.6-3.5,0.6-7,3.5-9.3c3.2-2.6,8.4-3.5,12.2,0.9c2.6,3.2,4.1,12.8,4.4,15.4
		c1.5,9.3,3.2,22.4,3.5,31.7v2c0.3,4.1,1.2,7.8,2.9,11.6c9.3,20.3,28.2,46.2,28.2,46.2l1.2,1.5c0.9,1.2,2.3,1.5,3.5,0.9
		c1.5-0.9,1.7-2.6,1.2-3.8l-25-40.7c-2.6-4.6-1.2-11,3.8-13.9c4.9-2.9,11.3-1.5,13.9,3.2l26.1,33.4c1.7,2.3,4.9,5.2,7.3,7
		c23.5,16.8,26.4,34,28.5,42.7c0,0,0.3,2,0.3,4.6c0,2.3,0,5.2-0.6,8.1l-1.5,28.2c0,2-1.7,3.8-3.8,3.8l-43.9-0.3
		c-2,0-3.8-1.7-3.8-3.8l-0.9-23.2l-41.8-50.2c-6.1-6.4-10.5-13.9-11.6-22.7L9.8,170.4z M33.9,133.5v2.3c0.9-0.9,1.7-1.5,2.9-2
		c1.2-0.9,2.6-1.5,4.1-1.7c0,0,0-0.3,0.3-0.3c-0.9-7.3-3.5-21.2-5.5-28.2c-0.9-3.5-2.9-6.1-6.7-7.3c0.9,2.6,1.2,4.9,1.7,7.3
		C31.8,111.8,33.6,126,33.9,133.5 M48.1,130.1v0.9c2,0,4.4,0.6,6.4,1.2c-0.6-4.6-3.8-14.2-4.9-18.6c-0.9-3.5-2.9-6.1-6.7-7.3
		c1.2,5.2,4.1,15.1,4.9,20L48.1,130.1z M229.3,145.2l-26.1,33.4c-1.7,2.3-4.9,5.2-7.3,7c-23.5,16.8-26.4,34-28.5,42.7
		c0,0-0.3,2-0.3,4.6c0,2.3,0,5.2,0.6,8.1l1.5,28.2c0,2,1.7,3.8,3.8,3.8l43.9-0.3c2,0,3.8-1.7,3.8-3.8l0.9-23.2l41.8-50.2
		c6.1-6.4,10.5-13.9,11.6-22.7l0.3-2.6l7.3-70.6c0.3-3.5-0.9-7-3.5-9.3c-3.2-2.6-8.4-3.5-12.2,0.9c-2.6,3.2-4.1,12.8-4.4,15.4
		c-1.5,9.3-3.2,22.4-3.5,31.7v2c-0.3,4.1-1.2,7.8-2.9,11.6c-9.3,20.3-28.2,46.2-28.2,46.2l-1.2,2c-0.9,1.2-2.3,1.5-3.5,0.9
		c-1.5-0.9-1.7-2.6-1.2-3.8l25-40.7c2.6-4.6,1.2-11-3.8-13.9C238.3,139.3,231.9,140.8,229.3,145.2 M248.2,133.8c1.2,0.6,2,1.5,2.9,2
		v-2.3c0.3-7.6,2-22.1,3.5-29.9c0.3-2.3,0.9-4.9,1.7-7.3c-3.5,1.2-5.8,3.8-6.7,7.3c-1.7,7.3-4.4,20.9-5.5,28.2c0,0,0,0.3,0.3,0.3
		C245.6,132.7,247,133.2,248.2,133.8 M236.9,130.9v-0.9l0.6-3.5c0.6-5.2,3.8-14.8,4.9-20c-3.5,1.2-5.5,3.8-6.7,7.3
		c-1.2,4.4-4.4,13.9-4.9,18.6C232.8,131.5,234.8,130.9,236.9,130.9 M85,128.3l7.3,6.1l-2.3,9c-0.3,1.7,1.5,3.2,2.9,2l7.8-4.9
		l7.8,4.9c1.5,0.9,3.5-0.3,2.9-2l-2.3-9l7.3-6.1c1.5-1.2,0.6-3.2-1.2-3.5l-9.3-0.6l-3.5-8.7c-0.6-1.7-2.9-1.7-3.5,0l-3.5,8.7
		l-9.3,0.6C84.1,124.8,83.5,127.1,85,128.3 M157,124.8l-9.3-0.6l-3.5-8.7c-0.6-1.7-2.9-1.7-3.5,0l-3.5,8.7l-9.3,0.6
		c-1.7,0-2.3,2.3-1.2,3.5l7.3,6.1l-2.3,9c-0.3,1.7,1.5,3.2,2.9,2l7.8-4.9l7.8,4.9c1.5,0.9,3.5-0.3,2.9-2l-2-9.3l7.3-6.1
		C159.6,127.1,158.7,124.8,157,124.8 M182.6,115.5l-3.5,8.7l-9.3,0.6c-1.7,0-2.3,2.3-1.2,3.5l7.3,6.1l-2.3,9c-0.3,1.7,1.5,3.2,2.9,2
		l7.8-4.9l7.8,4.9c1.5,0.9,3.5-0.3,2.9-2l-2.3-9l7.3-6.1c1.5-1.2,0.6-3.2-1.2-3.5l-9.3-0.6l-3.5-8.7
		C185.5,113.8,183.1,113.8,182.6,115.5 M113.7,180.3l7.8-4.9l7.8,4.9c1.5,0.9,3.5-0.3,2.9-2l-2.3-9l7.3-6.1c1.5-1.2,0.6-3.2-1.2-3.5
		l-9.3-0.6l-3.5-8.7c-0.6-1.7-2.9-1.7-3.5,0l-3.5,8.7l-9.3,0.6c-1.7,0-2.3,2.3-1.2,3.5l7.3,6.1l-2.3,9
		C110.2,179.7,112,181.2,113.7,180.3 M177.9,159.7l-9.3-0.9l-3.5-8.7c-0.6-1.7-2.9-1.7-3.5,0l-3.5,8.7l-9.3,0.6
		c-1.7,0-2.3,2.3-1.2,3.5l7.3,6.1l-2.3,9c-0.3,1.7,1.5,3.2,2.9,2l7.8-4.9l7.8,4.9c1.5,0.9,3.5-0.3,2.9-2l-2.3-9l7.3-6.1
		C180.5,162,179.9,159.7,177.9,159.7 M192.7,68.8L192.7,68.8v0.3c0.3,0.9,0.6,1.7,0.9,2.6h38.3c1.2,0,2-1.5,1.2-2.3l-9.3-11
		c-0.3-0.3-0.3-0.9,0-1.2l9.3-11.6c0.9-0.9,0-2.3-1.2-2.3h-38.3c-0.3,0.9-0.6,2-0.9,2.9v0.3l0.3,0.3c3.2,2.9,4.9,7,4.9,11.3
		C197.9,61.8,195.9,65.9,192.7,68.8 M51.9,69.4c-0.9,0.9,0,2.3,1.2,2.3h38.3c0.3-0.9,0.6-2,0.9-2.9v-0.3l-0.3-0.3
		c-3.2-2.9-4.9-7-4.9-11.3s1.7-8.4,5.2-11.3l0.3-0.3V45c-0.3-0.9-0.6-1.7-0.9-2.6H53c-1.2,0-2,1.5-1.2,2.3L61.2,56
		c0.3,0.3,0.3,0.9,0,1.2L51.9,69.4z M98,62.1c-2.6-2.3-2.6-6.7,0-9l1.7-1.5c2-1.7,2.6-4.4,1.5-7l-0.9-2.3c-1.5-3.5,0.6-7.3,4.1-8.1
		l2.3-0.6c2.6-0.6,4.4-2.9,4.4-5.5v-2.3c0.3-3.2,2.9-5.8,6.1-5.8h1.2l2.3,0.3h1.2c2.3,0,4.4-1.2,5.2-3.2l1.2-2
		c1.2-2,3.2-3.2,5.2-3.2c1.2,0,2.3,0.3,3.5,1.2l2,1.5c1.2,0.9,2.3,1.2,3.5,1.2c1.2,0,2.6-0.3,3.5-1.2l2-1.5c1.2-0.6,2.3-1.2,3.5-1.2
		c2,0,4.4,1.2,5.2,3.2l1.2,2c1.2,2,3.5,3.5,5.5,3.5h1.2l2.3-0.3h1.2c3.2,0,5.8,2.6,6.1,5.8v2.3c0,2.6,2,4.9,4.4,5.5l2.3,0.6
		c3.5,0.9,5.2,4.9,4.1,8.1L184,45c-1.2,2.3-0.3,5.2,1.5,7l1.7,1.5c2.6,2.3,2.6,6.7,0,9l-1.7,1.5c-2,1.7-2.6,4.4-1.5,7l0.9,2.3
		c1.5,3.5-0.6,7.3-4.1,8.1l-2.3,0.6c-2.6,0.6-4.4,2.9-4.4,5.5v2.3c-0.3,3.2-2.9,5.8-6.1,5.8h-1.2l-2.3-0.3h-1.2
		c-2.3,0-4.4,1.2-5.2,3.2l-1.2,2c-1.2,2-3.2,3.2-5.2,3.2c-1.2,0-2.3-0.3-3.5-1.2l-2-1.5c-1.2-0.9-2.3-1.2-3.5-1.2
		c-1.2,0-2.6,0.3-3.5,1.2l-2.3,0.9c-1.2,0.9-2.3,1.2-3.5,1.2c-2,0-4.4-1.2-5.2-3.2l-1.2-2c-1.2-2-3.2-3.2-5.2-3.2h-1.2l-2.3,0.3
		h-1.2c-3.2,0-5.8-2.6-6.1-5.8v-2.3c0-2.6-2-4.9-4.4-5.5l-2.3-0.6c-3.5-0.9-5.2-4.9-4.1-8.1l0.9-2.3c1.2-2.3,0.3-5.2-1.5-7L98,62.1z
		 M126.8,67.6c0.3,4.1,1.5,7,3.8,9.3c2.6,2.3,5.8,3.8,9.6,4.1v5.2c0,0.6,0.6,1.2,1.2,1.2h4.6c0.6,0,1.2-0.6,1.2-1.2V81
		c3.2-0.6,5.5-1.7,7.6-3.8c2.3-2.3,3.5-5.2,3.5-8.7c0-3.8-1.2-6.7-3.5-8.7c-2.3-2-5.8-4.1-10.7-6.1c-2-0.9-3.5-1.7-4.4-2.6
		c-0.9-0.9-1.2-2-1.2-3.5s0.3-2.6,1.2-3.5c0.6-0.9,1.7-1.5,3.2-1.5c1.5,0,2.6,0.6,3.5,1.7c0.6,0.9,1.2,2,1.2,3.8
		c0,0.9,0.9,1.2,1.5,1.2h7.5c0.9,0,1.5-0.6,1.5-1.5c-0.3-3.2-1.2-6.1-3.2-8.1c-2-2.3-4.6-3.8-7.8-4.4v-6.1c0-0.6-0.6-1.2-1.2-1.2
		H141c-0.6,0-1.2,0.6-1.2,1.2v5.5c-3.5,0.6-6.4,1.7-8.4,3.8c-2.3,2.3-3.5,5.2-3.5,8.7c0,3.8,1.2,6.7,3.5,8.7c2.3,2,5.8,4.1,10.7,5.8
		c2,0.9,3.5,1.7,4.1,2.6c0.9,0.9,1.2,2,1.2,3.8c0,1.5-0.3,2.6-1.2,3.5c-0.9,0.9-2,1.5-3.5,1.5c-1.7,0-3.2-0.6-4.4-1.7
		c-0.9-0.9-1.5-2.3-1.7-4.4c0-0.9-0.9-1.2-1.5-1.2h-7.6C127.4,66.2,126.8,66.7,126.8,67.6"/>
</g>
</svg>
