<?xml version="1.0" encoding="utf-8"?>
<!-- Generator: Adobe Illustrator 16.0.0, SVG Export Plug-In . SVG Version: 6.00 Build 0)  -->
<!DOCTYPE svg PUBLIC "-//W3C//DTD SVG 1.1//EN" "http://www.w3.org/Graphics/SVG/1.1/DTD/svg11.dtd">
<svg version="1.1" id="Layer_1" xmlns="http://www.w3.org/2000/svg" xmlns:xlink="http://www.w3.org/1999/xlink" x="0px" y="0px"
	 width="283.5px" height="283.5px" viewBox="0 0 283.5 283.5" enable-background="new 0 0 283.5 283.5" xml:space="preserve">
<g>
	<path fill="#FFFFFF" d="M150.6,182.3l57.2-75.4h-59.4l-8.1-12.4h54.5c-6.3-7.5-10.2-17.2-10.2-27.8c0-1.8,0.1-3.5,0.3-5.2h-66.1
		L83.3,6.8C82.1,5.1,80.2,4,78.1,4H42.2C38.8,4,36,6.8,36,10.2s2.8,6.2,6.2,6.2h32.5l29.4,45.2H59c-2.4,0-4.5,1.3-5.5,3.4
		c-1,2.1-0.8,4.6,0.6,6.5l17.5,23h54l8.1,12.4H81l57.2,75.4v70.4c0,0.1,0,0.1,0,0.2c-33.6,2.1-49.5,21.2-49.5,28.3H200
		c0-7.1-15.8-26.2-49.5-28.3c0-0.1,0-0.1,0-0.2V182.3"/>
	<path fill="#FFFFFF" d="M229.3,33.7c18.6,0,33.8,15.1,33.8,33.8c0,18.6-15.1,33.8-33.8,33.8c-18.6,0-33.8-15.1-33.8-33.8
		C195.5,48.8,210.6,33.7,229.3,33.7"/>
</g>
</svg>
