<?xml version="1.0" encoding="utf-8"?>
<!-- Generator: Adobe Illustrator 16.0.0, SVG Export Plug-In . SVG Version: 6.00 Build 0)  -->
<!DOCTYPE svg PUBLIC "-//W3C//DTD SVG 1.1//EN" "http://www.w3.org/Graphics/SVG/1.1/DTD/svg11.dtd">
<svg version="1.1" id="Layer_1" xmlns="http://www.w3.org/2000/svg" xmlns:xlink="http://www.w3.org/1999/xlink" x="0px" y="0px"
	 width="283.5px" height="283.5px" viewBox="0 0 283.5 283.5" enable-background="new 0 0 283.5 283.5" xml:space="preserve">
<g>
	<path fill="#FFFFFF" d="M140.7,266.2c74.4,0,134.1-60.2,134.1-134.5H6.6C6.6,206,66.4,266.2,140.7,266.2"/>
	<path fill="#FFFFFF" d="M280.4,35.5c-1.2-12.1-21.4-20.8-32.3-13.9c-11,6.9-75.1,100.5-75.1,100.5H251
		C251,122.1,281.6,47.6,280.4,35.5"/>
	<path fill="#FFFFFF" d="M90.5,121.4c-5.8-11.5-22.4-38.3-64.3-71.9c0,0,44.8,24.2,71.5,69.3c2.5-8.8,22.6-90.5-94.2-79.3
		C3.5,39.4,6.1,141.3,90.5,121.4"/>
	<path fill="#FFFFFF" d="M98.5,65.6c5.7-14.8,11.4-24.1,11.4-24.1c-4,10.3-7.1,19.7-9.4,28.1c6.5,14.4,7,31.6,3.4,47
		c54.5-25,18.2-91.8,18.2-91.8C104.9,32.7,92.8,41,84.5,49.2C90.1,53.5,94.8,59,98.5,65.6"/>
</g>
</svg>
