<?xml version="1.0" encoding="utf-8"?>
<!-- Generator: Adobe Illustrator 16.0.0, SVG Export Plug-In . SVG Version: 6.00 Build 0)  -->
<!DOCTYPE svg PUBLIC "-//W3C//DTD SVG 1.1//EN" "http://www.w3.org/Graphics/SVG/1.1/DTD/svg11.dtd">
<svg version="1.1" id="Layer_1" xmlns="http://www.w3.org/2000/svg" xmlns:xlink="http://www.w3.org/1999/xlink" x="0px" y="0px"
	 width="283.5px" height="283.5px" viewBox="0 0 283.5 283.5" enable-background="new 0 0 283.5 283.5" xml:space="preserve">
<g>
	<path fill="#FFFFFF" d="M202,271.3H90.9v-9.3h9.3h23.1h46.3h23.1h9.3V271.3z M118.6,95.4c0-2.6,2.1-4.6,4.6-4.6h21.2
		c1.4,0,2.8,0.7,3.6,1.8c5.8,7.4,11,15.5,15.5,24.1c0,0,0,0,0,0.1c3.8,7.3,7.1,15.1,9.9,23.1c0,0.1,0.1,0.2,0.1,0.2
		c2.7,7.7,4.9,15.7,6.6,23.9c1.7,8.6,3.2,23.5,3.2,33.2c0,9.5-0.9,19.1-2.8,28.5l-5.4,27.1h-9.4l2.8-13.9h-40.6v13.9h-9.3V95.4z
		 M206.6,252.8h-8.1l3.5-15.7c3.1-13.8,4.6-28,4.6-42.2c0-11-1-22.2-3.1-33c-8.9-46.5-32-86.3-65.3-112
		c-9.6-7.4-20.9-13.4-33.4-17.9V7.5c0-2.6-2.1-4.6-4.6-4.6c-2.6,0-4.6,2.1-4.6,4.6v27.8v217.6h-9.3c-2.6,0-4.6,2.1-4.6,4.6V276
		c0,2.6,2.1,4.6,4.6,4.6h120.4c2.6,0,4.6-2.1,4.6-4.6v-18.5C211.2,254.9,209.1,252.8,206.6,252.8"/>
	<path fill="#FFFFFF" d="M171.5,223.9c0.5-2.7,1-5.4,1.3-8.1h-45v13.9h42.5L171.5,223.9z"/>
	<path fill="#FFFFFF" d="M171.9,169.6l-44,0v13.9h45.6C173.1,178.5,172.5,173.6,171.9,169.6"/>
	<path fill="#FFFFFF" d="M174.2,197.2c0-1.4,0-3-0.1-4.6h-46.2v13.9h45.9C174,203.4,174.2,200.3,174.2,197.2"/>
	<path fill="#FFFFFF" d="M166,146.4h-38.2v13.9l42,0C168.8,155.6,167.5,150.9,166,146.4"/>
	<path fill="#FFFFFF" d="M142.2,100.1h-14.3v13.9h23.6C148.6,109.1,145.5,104.5,142.2,100.1"/>
	<path fill="#FFFFFF" d="M156.6,123.2h-28.7v13.9h34.8C160.9,132.3,158.8,127.7,156.6,123.2"/>
</g>
</svg>
