<?xml version="1.0" encoding="utf-8"?>
<!-- Generator: Adobe Illustrator 16.0.0, SVG Export Plug-In . SVG Version: 6.00 Build 0)  -->
<!DOCTYPE svg PUBLIC "-//W3C//DTD SVG 1.1//EN" "http://www.w3.org/Graphics/SVG/1.1/DTD/svg11.dtd">
<svg version="1.1" id="Layer_1" xmlns="http://www.w3.org/2000/svg" xmlns:xlink="http://www.w3.org/1999/xlink" x="0px" y="0px"
	 width="283.5px" height="283.5px" viewBox="0 0 283.5 283.5" enable-background="new 0 0 283.5 283.5" xml:space="preserve">
<polygon fill="#FFFFFF" points="111.8,162.4 91.7,130.8 34.3,216.4 4,216.4 4,229.8 263.3,229.8 263.3,216.4 238.3,216.4 155,86.3 
	"/>
<g>
	<path fill="#FFFFFF" d="M200.7,115.4L200.7,115.4l25.5,40.7l3.6,5.7c15.9-10,20.8-31.1,10.8-47c-10-15.9-31.1-20.8-47-10.8
		L200.7,115.4z"/>
	
		<rect x="253.5" y="83.2" transform="matrix(-0.5356 -0.8445 0.8445 -0.5356 318.5312 367.153)" fill="#FFFFFF" width="13.4" height="25.5"/>
	
		<rect x="262.3" y="137.4" transform="matrix(-0.1884 0.9821 -0.9821 -0.1884 466.4099 -86.6982)" fill="#FFFFFF" width="13.4" height="24"/>
	
		<rect x="213.9" y="57.4" transform="matrix(-0.9731 -0.2306 0.2306 -0.9731 419.2438 187.3388)" fill="#FFFFFF" width="13.4" height="23.6"/>
</g>
</svg>
