<?xml version="1.0" encoding="utf-8"?>
<!-- Generator: Adobe Illustrator 16.0.0, SVG Export Plug-In . SVG Version: 6.00 Build 0)  -->
<!DOCTYPE svg PUBLIC "-//W3C//DTD SVG 1.1//EN" "http://www.w3.org/Graphics/SVG/1.1/DTD/svg11.dtd">
<svg version="1.1" id="Layer_1" xmlns="http://www.w3.org/2000/svg" xmlns:xlink="http://www.w3.org/1999/xlink" x="0px" y="0px"
	 width="283.5px" height="283.5px" viewBox="0 0 283.5 283.5" enable-background="new 0 0 283.5 283.5" xml:space="preserve">
<g>
	<path fill="#FFFFFF" d="M226.5,175.2c-10.2-10.1-19.1-18-26.7-23.3c0.1-0.5,0.2-1.1,0.2-1.6v-12c0-6.3-4.7-11.6-10.8-12.6
		c-1.1-15.5-8-18.9-13.9-18.9c-3.4,0-6.3,1-8.5,3.1c-2.5-2-6-3.1-10.3-3.1c-2,0-4,0.5-5.9,1.4c-3.4-14.4-14.2-24.8-26.9-24.8
		c-4.9,0-9.5,1.6-13.6,4.5l-8.1-37.8c9.2-6.9,15.6-18.1,16.7-30.8c0.3-3.8-0.9-7.4-3.4-10.2c-3.2-3.5-8.1-5.1-12.7-4.1L53.4,15.6
		c-4.2,0.9-7.6,3.7-9.4,7.6c-1.8,3.9-1.6,8.3,0.5,12c5.7,10.1,15,17.5,25.4,20.6l10.4,48.9c-2.6,1.7-5,3.9-6.9,6.7
		c-3-2.5-6.7-3.9-10.5-3.9c-10.1,0-18.4,9.8-18.7,22.1c-2.2,2.3-3.5,5.4-3.5,8.7v12c0,5.6,3.6,10.3,8.6,12l14.5,105.1
		c1,7.2,7.3,12.7,14.6,12.7h81.4c7.3,0,13.6-5.5,14.6-12.7l0.8-5.6c4.5,1.4,9.1,2,13.6,2c14.4,0,28.2-6.6,38-16.7
		C243.7,229.5,250.9,199.5,226.5,175.2 M79.9,57.8l2.1-0.5c2-0.1,4-0.3,6-0.7c1.9-0.4,3.8-1,5.6-1.7l8.7,41c-0.2,0.3-0.4,0.6-0.6,1
		c-0.5,0.8-1,1.6-1.4,2.4c-0.3,0.6-0.6,1.3-0.9,1.9c-0.3,0.6-0.6,1.2-0.9,1.9c-2.4-1-5-1.5-7.6-1.5c-0.6,0-1.2,0-1.8,0.1L79.9,57.8z
		 M50.1,150.2v-12c0-1.9,1.5-3.4,3.4-3.4h131.2h2.5c1.9,0,3.4,1.5,3.4,3.4v12c0,1.9-1.5,3.4-3.4,3.4H53.5
		C51.6,153.6,50.1,152.1,50.1,150.2 M167.6,248c-2.3-1.5-4.6-3.3-6.9-5.4c-9.2-8.6-16-18-19.9-23.8c7.1-2.8,12.1-9.8,12.1-17.9
		c0-10.6-8.6-19.3-19.2-19.3c-10.6,0-19.3,8.6-19.3,19.3c0,9.5,6.9,17.3,15.9,18.9c3.1,5.1,11.4,17.9,23.9,29.6
		c3.8,3.6,7.8,6.4,11.9,8.6l-1.1,8c-0.4,2.6-2.6,4.6-5.3,4.6H78.5c-2.7,0-4.9-2-5.3-4.6L59,163h120.4L167.6,248z M220,240.6
		c-10.6,11-27.1,17.5-43.5,11.8l12.4-89.6c2.4-0.3,4.6-1.3,6.4-2.7c6.9,5,15.4,12.5,24.7,21.7C239.8,201.7,233.9,226.2,220,240.6"/>
</g>
</svg>
