<?xml version="1.0" encoding="utf-8"?>
<!-- Generator: Adobe Illustrator 16.0.0, SVG Export Plug-In . SVG Version: 6.00 Build 0)  -->
<!DOCTYPE svg PUBLIC "-//W3C//DTD SVG 1.1//EN" "http://www.w3.org/Graphics/SVG/1.1/DTD/svg11.dtd">
<svg version="1.1" id="Layer_1" xmlns="http://www.w3.org/2000/svg" xmlns:xlink="http://www.w3.org/1999/xlink" x="0px" y="0px"
	 width="283.5px" height="283.5px" viewBox="0 0 283.5 283.5" enable-background="new 0 0 283.5 283.5" xml:space="preserve">
<g>
	<path fill="#FFFFFF" d="M182.4,235.5h-53.1c-5.8,0-10.5,4.7-10.5,10.5v25.3c0,5.8,4.7,10.5,10.5,10.5h53.1
		c5.8,0,10.5-4.7,10.5-10.5V246C192.9,240.2,188.2,235.5,182.4,235.5"/>
	<path fill="#FFFFFF" d="M280.8,125.3c0-28.5-23.2-51.6-51.6-51.6h-128c-28.5,0-51.6,23.2-51.6,51.6l0,7.8l0,0.4v0.2h-9.2V50.5h-37
		v171.1c0,30.6,24.9,55.5,55.5,55.5h48.6c1.9,0,3.6-0.7,4.9-2c1.3-1.3,2-3,2-4.9c0-5.2,0-17.9,0-23.1c0-1.8-0.7-3.6-2-4.9
		c-1.3-1.3-3-2-4.9-2H58.8c-10.2,0-18.5-8.3-18.5-18.5v-60.1h9.2v8.6c-0.2,4.9,0.5,17.6,10.9,29.1C71,211,87.7,217,110,217
		c23.3-0.4,43.9-9.1,55.1-23.3c11.1,14.2,31.7,22.9,55.1,23.3h0.3c22,0,38.6-6,49.2-17.7c10.4-11.5,11.1-24.2,10.9-29L280.8,125.3z
		 M40.7,143h8.7v9.3h-8.7V143z M271.5,143L271.5,143l0,27.5c0.1,3.8-0.4,13.6-8.5,22.6c-8.8,9.7-23.1,14.7-42.3,14.7h-0.3
		c-20.3-0.4-38.6-7.9-47.9-19.8c-1.8-2.3-4.5-3.6-7.4-3.6c-2.9,0-5.6,1.3-7.4,3.6c-9.3,11.8-27.6,19.4-47.8,19.8
		c-19.5,0-33.8-4.9-42.7-14.7c-8.1-9-8.7-18.8-8.5-22.8l0-8.8h0v-27.8h0l0-8.5c0-23.4,19-42.4,42.4-42.4h128
		c23.4,0,42.4,19,42.4,42.4V143z"/>
	<rect x="3.3" y="4.3" fill="#FFFFFF" width="37" height="37"/>
	<path fill="#FFFFFF" d="M241.5,100.3c-8.9-5.4-19.5-8.2-30.9-8.2h-91c-11.3,0-22,2.8-30.9,8.2C75.1,108.5,68,120.1,68,133.8l0,36.5
		c0,0.4-0.8,8.9,6.1,16.6c7,7.7,18.9,11.6,35.6,11.6c1.9,0,46.1-1.2,46.2-32.3l0,0c0-5.1,4.2-9.3,9.3-9.3c5.1,0,9.2,4.1,9.3,9.2l0,0
		c0,31.2,44.3,32.3,46.2,32.4h0.1c16.6,0,28.5-3.9,35.5-11.6c6.9-7.6,6.2-16.1,6.1-16.1v-37C262.2,120.1,255.1,108.5,241.5,100.3
		 M95.8,143c-1.2,0-2.4-0.5-3.3-1.4c-1.8-1.8-1.8-4.7,0-6.5l18.5-18.5c1.8-1.8,4.7-1.8,6.5,0s1.8,4.7,0,6.5L99,141.6
		C98.1,142.5,96.9,143,95.8,143 M149.9,123.1l-32.4,32.4c-0.9,0.9-2.1,1.4-3.3,1.4s-2.4-0.5-3.3-1.4c-1.8-1.8-1.8-4.7,0-6.5
		l32.4-32.4c1.8-1.8,4.7-1.8,6.5,0S151.7,121.3,149.9,123.1"/>
</g>
</svg>
