<?xml version="1.0" encoding="utf-8"?>
<!-- Generator: Adobe Illustrator 16.0.0, SVG Export Plug-In . SVG Version: 6.00 Build 0)  -->
<!DOCTYPE svg PUBLIC "-//W3C//DTD SVG 1.1//EN" "http://www.w3.org/Graphics/SVG/1.1/DTD/svg11.dtd">
<svg version="1.1" id="Layer_1" xmlns="http://www.w3.org/2000/svg" xmlns:xlink="http://www.w3.org/1999/xlink" x="0px" y="0px"
	 width="283.5px" height="283.5px" viewBox="0 0 283.5 283.5" enable-background="new 0 0 283.5 283.5" xml:space="preserve">
<g>
	<path fill="#FFFFFF" d="M276.9,86.9c-1.8-2.1-4.4-3.4-7.2-3.4h-61.6V69c0-36.2-29.4-65.6-65.6-65.6C105.8,3.4,76,33.2,76,69.8v13.7
		H14.4c-2.8,0-5.4,1.2-7.2,3.4c-1.8,2.1-2.5,4.9-2,7.6l7.9,45.6h258l7.9-45.6C279.4,91.8,278.7,89,276.9,86.9 M184.5,88.3
		c0,23.3-19,42.2-42.4,42.2c-23.4,0-42.5-18.9-42.5-42.2v-4.7H85.4V69.8c0-31.4,25.6-57,57-57c31,0,56.2,25.2,56.2,56.2v14.6h-14.2
		V88.3z"/>
	<polygon fill="#FFFFFF" points="29.3,234.5 254.8,234.5 261.3,196.7 22.8,196.7 	"/>
	<path fill="#FFFFFF" d="M35,267.6c1.7,8.1,9.1,14.1,17.4,14.1h179.2c8.3,0,15.6-5.9,17.4-14.3l4.1-23.5H31L35,267.6z"/>
	<polygon fill="#FFFFFF" points="21.2,187.3 262.9,187.3 269.4,149.6 14.7,149.6 	"/>
</g>
</svg>
