<?xml version="1.0" encoding="utf-8"?>
<!-- Generator: Adobe Illustrator 16.0.0, SVG Export Plug-In . SVG Version: 6.00 Build 0)  -->
<!DOCTYPE svg PUBLIC "-//W3C//DTD SVG 1.1//EN" "http://www.w3.org/Graphics/SVG/1.1/DTD/svg11.dtd">
<svg version="1.1" id="Layer_1" xmlns="http://www.w3.org/2000/svg" xmlns:xlink="http://www.w3.org/1999/xlink" x="0px" y="0px"
	 width="283.5px" height="283.5px" viewBox="0 0 283.5 283.5" enable-background="new 0 0 283.5 283.5" xml:space="preserve">
<g>
	<path fill="#FFFFFF" d="M142.2,55c-4.7,0-8.4-3.8-8.4-8.4V14.1c0-4.7,3.8-8.4,8.4-8.4s8.4,3.8,8.4,8.4v32.4
		C150.6,51.2,146.8,55,142.2,55"/>
	<path fill="#FFFFFF" d="M93.3,62.8c-2.9,0-5.7-1.5-7.3-4.2L65.4,23c-2.3-4-0.9-9.2,3.1-11.5c4-2.3,9.2-0.9,11.5,3.1l20.6,35.6
		c2.3,4,0.9,9.2-3.1,11.5C96.1,62.5,94.7,62.8,93.3,62.8"/>
	<path fill="#FFFFFF" d="M52.6,95.8c-1.4,0-2.9-0.4-4.2-1.1L20.1,78.4c-4-2.3-5.4-7.5-3.1-11.5c2.3-4,7.5-5.4,11.5-3.1l28.2,16.3
		c4,2.3,5.4,7.5,3.1,11.5C58.3,94.3,55.5,95.8,52.6,95.8"/>
	<path fill="#FFFFFF" d="M191.1,62.8c-1.4,0-2.9-0.4-4.2-1.1c-4-2.3-5.4-7.5-3.1-11.5l20.6-35.6c2.3-4,7.5-5.4,11.5-3.1
		c4,2.3,5.4,7.5,3.1,11.5l-20.6,35.6C196.8,61.3,194,62.8,191.1,62.8"/>
	<path fill="#FFFFFF" d="M231.8,95.8c-2.9,0-5.7-1.5-7.3-4.2c-2.3-4-0.9-9.2,3.1-11.5l28.2-16.3c4-2.3,9.2-0.9,11.5,3.1
		c2.3,4,0.9,9.2-3.1,11.5L236,94.7C234.6,95.4,233.2,95.8,231.8,95.8"/>
	<path fill="#FFFFFF" d="M271.3,233.2c-11.6,0-22.8-3.5-32.3-10c-9.5,6.5-20.7,10-32.3,10c-11.6,0-22.8-3.5-32.3-10
		c-9.5,6.5-20.7,10-32.3,10c-11.6,0-22.8-3.5-32.3-10c-9.5,6.5-20.7,10-32.3,10c-11.6,0-22.8-3.5-32.3-10c-9.5,6.5-20.7,10-32.3,10
		c-4.7,0-8.4-3.8-8.4-8.4c0-4.7,3.8-8.4,8.4-8.4c9.9,0,19.3-3.6,26.7-10.2c3.2-2.9,8-2.9,11.2,0c7.3,6.6,16.8,10.2,26.7,10.2
		c9.9,0,19.3-3.6,26.7-10.2c3.2-2.9,8-2.9,11.2,0c7.4,6.6,16.8,10.2,26.7,10.2c9.9,0,19.3-3.6,26.7-10.2c3.2-2.9,8-2.9,11.2,0
		c7.4,6.6,16.8,10.2,26.7,10.2c9.9,0,19.3-3.6,26.7-10.2c3.2-2.9,8-2.9,11.2,0c7.4,6.6,16.8,10.2,26.7,10.2c4.7,0,8.4,3.8,8.4,8.4
		C279.7,229.4,276,233.2,271.3,233.2"/>
	<path fill="#FFFFFF" d="M271.3,279c-11.6,0-22.8-3.5-32.3-10c-9.5,6.5-20.7,10-32.3,10c-11.6,0-22.8-3.5-32.3-10
		c-9.5,6.5-20.7,10-32.3,10s-22.8-3.5-32.3-10c-9.5,6.5-20.7,10-32.3,10c-11.6,0-22.8-3.5-32.3-10c-9.5,6.5-20.7,10-32.3,10
		c-4.7,0-8.4-3.8-8.4-8.4s3.8-8.4,8.4-8.4c9.9,0,19.3-3.6,26.7-10.2c3.2-2.9,8-2.9,11.2,0c7.4,6.6,16.8,10.2,26.7,10.2
		c9.9,0,19.3-3.6,26.7-10.2c3.2-2.9,8-2.9,11.2,0c7.4,6.6,16.8,10.2,26.7,10.2c9.9,0,19.3-3.6,26.7-10.2c3.2-2.9,8-2.9,11.2,0
		c7.4,6.6,16.8,10.2,26.7,10.2c9.9,0,19.3-3.6,26.7-10.2c3.2-2.9,8-2.9,11.2,0c7.4,6.6,16.8,10.2,26.7,10.2c4.7,0,8.4,3.8,8.4,8.4
		C279.7,275.3,276,279,271.3,279"/>
	<path fill="#FFFFFF" d="M271.3,187.3c-11.6,0-22.8-3.5-32.3-10c-9.5,6.5-20.7,10-32.3,10c-11.6,0-22.8-3.5-32.3-10
		c-9.5,6.5-20.7,10-32.3,10c-11.6,0-22.8-3.5-32.3-10c-9.5,6.5-20.7,10-32.3,10c-11.6,0-22.8-3.5-32.3-10c-9.5,6.5-20.7,10-32.3,10
		c-4.7,0-8.4-3.8-8.4-8.4c0-4.7,3.8-8.4,8.4-8.4c9.9,0,19.3-3.6,26.7-10.2c3.2-2.9,8-2.9,11.2,0c7.3,6.6,16.8,10.2,26.7,10.2
		c9.9,0,19.3-3.6,26.7-10.2c3.2-2.9,8-2.9,11.2,0c7.4,6.6,16.8,10.2,26.7,10.2c9.9,0,19.3-3.6,26.7-10.2c3.2-2.9,8-2.9,11.2,0
		c7.4,6.6,16.8,10.2,26.7,10.2c9.9,0,19.3-3.6,26.7-10.2c3.2-2.9,8-2.9,11.2,0c7.4,6.6,16.8,10.2,26.7,10.2c4.7,0,8.4,3.8,8.4,8.4
		C279.7,183.5,276,187.3,271.3,187.3"/>
	<path fill="#FFFFFF" d="M45.3,141.3c6.2,0,12.2,2.3,16.8,6.4c4.3,3.8,9.7,5.9,15.5,5.9c5.7,0,11.2-2.1,15.5-5.9
		c4.6-4.1,10.6-6.4,16.8-6.4c6.2,0,12.2,2.3,16.8,6.4c4.3,3.8,9.8,5.9,15.5,5.9c5.7,0,11.2-2.1,15.5-5.9c4.6-4.1,10.6-6.4,16.8-6.4
		s12.2,2.3,16.8,6.4c4.3,3.8,9.8,5.9,15.5,5.9c5.7,0,11.2-2.1,15.5-5.9c4.6-4.1,10.6-6.4,16.8-6.4c1.9,0,3.9,0.2,5.7,0.7
		c-10-47.5-52.2-83.3-102.6-83.3c-50.4,0-92.6,35.8-102.6,83.3C41.4,141.5,43.3,141.3,45.3,141.3"/>
</g>
</svg>
