<?xml version="1.0" encoding="utf-8"?>
<!-- Generator: Adobe Illustrator 16.0.0, SVG Export Plug-In . SVG Version: 6.00 Build 0)  -->
<!DOCTYPE svg PUBLIC "-//W3C//DTD SVG 1.1//EN" "http://www.w3.org/Graphics/SVG/1.1/DTD/svg11.dtd">
<svg version="1.1" id="Layer_1" xmlns="http://www.w3.org/2000/svg" xmlns:xlink="http://www.w3.org/1999/xlink" x="0px" y="0px"
	 width="283.5px" height="283.5px" viewBox="0 0 283.5 283.5" enable-background="new 0 0 283.5 283.5" xml:space="preserve">
<g>
	<path fill="#FFFFFF" d="M22.3,241.9h129.9c6.3,0,12.2-1.7,17.1-5l79.4-79.3c3.5-3.5,5.4-8.2,5.4-13.1c0-5-1.9-9.6-5.4-13.1
		c-3.5-3.5-8.2-5.4-13.1-5.4c-5,0-9.6,1.9-13.1,5.4l-61.3,61.3L219.9,77c0-0.1,0-0.2,0.1-0.3c2.9-3.2,8.1-4.1,12.1-1.8
		c2.3,1.3,4,3.4,4.7,5.9c0.7,2.4,0.4,4.9-0.8,7c-0.4,0.7-0.6,1.5-0.6,2.3c0,1.6,0.8,3.2,2.3,4c2.2,1.3,5.1,0.5,6.3-1.7
		c2.5-4.3,8.6-5.8,13.1-3.1c4.8,2.8,6.6,8.6,4,13c0,0,0,0,0,0c-1.3,2.2-0.5,5.1,1.7,6.3c0.7,0.4,1.5,0.6,2.3,0.6
		c1.6,0,3.2-0.8,4-2.3c16.9-29.3,6.3-66-24.1-83.6c-10.1-5.8-21.4-8.9-32.7-8.9c-21.6,0-40.9,11.2-51.7,29.9
		c-1.3,2.2-0.5,5.1,1.7,6.3c2.2,1.3,5.1,0.5,6.3-1.7c0,0,0,0,0,0c2.5-4.2,8.7-5.7,13.3-3c2.3,1.3,4,3.4,4.7,5.9
		c0.7,2.4,0.4,4.9-0.8,7c-0.4,0.7-0.6,1.5-0.6,2.3c0,1.6,0.8,3.2,2.3,4c2.2,1.3,5.1,0.5,6.3-1.7c2.5-4.3,8.6-5.8,13.1-3.1
		c2.3,1.3,4,3.4,4.7,5.9c0.7,2.4,0.4,4.9-0.8,7c-0.3,0.6-0.5,1.2-0.6,1.8l-65.8,129.6H22.3c-10.2,0-18.6,8.3-18.6,18.6
		C3.8,233.6,12.1,241.9,22.3,241.9"/>
	<path fill="#FFFFFF" d="M274.4,260.2l-13.7-13.7l-39.4-39.4l59.4-59.4c1.8-1.8,1.8-4.7,0-6.6c-1.8-1.8-4.7-1.8-6.6,0L168.7,246.6
		H8.2H3.6v23.2h266.8c0.1,0,0.2,0,0.3,0l3.3,3.3c0.9,0.9,2.1,1.4,3.3,1.4c1.2,0,2.4-0.5,3.3-1.4c1.8-1.8,1.8-4.7,0-6.6L274.4,260.2z
		 M181.8,246.6l32.9-32.9l32.9,32.9H181.8z"/>
	<path fill="#FFFFFF" d="M36.1,70.3h9.6c0.8,6.8,3.5,13,7.5,18.1l-6.8,6.8c-1.8,1.8-1.8,4.7,0,6.6c0.9,0.9,2.1,1.4,3.3,1.4
		c1.2,0,2.4-0.5,3.3-1.4l6.8-6.8c5.1,4,11.3,6.7,18.1,7.5v9.6c0,2.6,2.1,4.6,4.6,4.6c2.6,0,4.6-2.1,4.6-4.6v-9.6
		c6.8-0.8,12.9-3.5,18.1-7.5l6.8,6.8c0.9,0.9,2.1,1.4,3.3,1.4c1.2,0,2.4-0.5,3.3-1.4c1.8-1.8,1.8-4.7,0-6.6l-6.8-6.8
		c4-5.1,6.7-11.3,7.5-18.1h9.6c2.6,0,4.6-2.1,4.6-4.6c0-2.6-2.1-4.6-4.6-4.6h-9.6c-0.8-6.8-3.5-13-7.5-18.1l6.8-6.8
		c1.8-1.8,1.8-4.7,0-6.6c-1.8-1.8-4.7-1.8-6.6,0l-6.8,6.8c-5.1-4-11.3-6.7-18.1-7.5v-9.6c0-2.6-2.1-4.6-4.6-4.6
		c-2.6,0-4.6,2.1-4.6,4.6v9.6c-6.8,0.8-13,3.5-18.1,7.5l-6.8-6.8c-1.8-1.8-4.7-1.8-6.6,0c-1.8,1.8-1.8,4.7,0,6.6l6.8,6.8
		c-4,5.1-6.7,11.3-7.5,18.1h-9.6c-2.6,0-4.6,2.1-4.6,4.6C31.4,68.2,33.5,70.3,36.1,70.3"/>
</g>
</svg>
