<?xml version="1.0" encoding="utf-8"?>
<!-- Generator: Adobe Illustrator 16.0.0, SVG Export Plug-In . SVG Version: 6.00 Build 0)  -->
<!DOCTYPE svg PUBLIC "-//W3C//DTD SVG 1.1//EN" "http://www.w3.org/Graphics/SVG/1.1/DTD/svg11.dtd">
<svg version="1.1" id="Layer_1" xmlns="http://www.w3.org/2000/svg" xmlns:xlink="http://www.w3.org/1999/xlink" x="0px" y="0px"
	 width="283.5px" height="283.5px" viewBox="0 0 283.5 283.5" enable-background="new 0 0 283.5 283.5" xml:space="preserve">
<g>
	<path fill="#FFFFFF" d="M169.1,239.6c-0.4-2.1-2.3-3.6-4.4-3.6h-45.3c-2.2,0-4,1.5-4.4,3.6l-9.1,31.7c-0.3,1.3,0.1,2.7,0.9,3.8
		c0.9,1.1,2.1,1.7,3.5,1.7h63.5h0.1c2.5,0,4.5-2,4.5-4.5c0-0.6-0.1-1.2-0.3-1.8L169.1,239.6z"/>
	<path fill="#FFFFFF" d="M33.2,222.3H10.5c-2.5,0-4.5,2-4.5,4.5c0,2.5,2,4.5,4.5,4.5h22.7c2.5,0,4.5-2,4.5-4.5
		C37.7,224.4,35.7,222.3,33.2,222.3"/>
	<path fill="#FFFFFF" d="M273.5,222.3h-22.7c-2.5,0-4.5,2-4.5,4.5c0,2.5,2,4.5,4.5,4.5h22.7c2.5,0,4.5-2,4.5-4.5
		C278,224.4,276,222.3,273.5,222.3"/>
	<rect x="110.3" y="168" fill="#FFFFFF" width="27.2" height="63.5"/>
	<rect x="146.5" y="168" fill="#FFFFFF" width="27.2" height="63.5"/>
	<path fill="#FFFFFF" d="M237.2,127.1c16.9,0,31.8,8.4,40.8,21.3V18.4h-72.5V4.8H78.5v13.6H6v130.1c9-12.8,23.9-21.3,40.8-21.3
		c12.1,0,23.1,4.4,31.7,11.5v12.7c-7.5-9.3-18.9-15.2-31.7-15.2C24.3,136.2,6,154.5,6,177c0,21,15.9,38.3,36.3,40.5v54.7
		c0,2.5,2,4.5,4.5,4.5c2.5,0,4.5-2,4.5-4.5v-54.7c11-1.2,20.6-6.8,27.2-15v19.7H60.4c-2.5,0-4.5,2-4.5,4.5c0,2.5,2,4.5,4.5,4.5h18.1
		h4.5h18.1v-68c0-2.5,2-4.5,4.5-4.5h72.5c2.5,0,4.5,2,4.5,4.5v68h18.1h4.5h18.1c2.5,0,4.5-2,4.5-4.5c0-2.5-2-4.5-4.5-4.5h-18.1
		v-19.7c6.6,8.2,16.2,13.7,27.2,15v54.7c0,2.5,2,4.5,4.5,4.5s4.5-2,4.5-4.5v-54.7C262.1,215.3,278,198,278,177
		c0-22.5-18.3-40.8-40.8-40.8c-12.8,0-24.2,6-31.7,15.2v-12.7C214.1,131.5,225.1,127.1,237.2,127.1 M214.5,45.5h45.3v31.7h-45.3
		V45.5z M214.5,86.4h45.3v31.7h-45.3V86.4z M69.5,118.1H24.1V86.4h45.3V118.1z M69.5,77.3H24.1V45.5h45.3V77.3z M51.3,208.4V197
		l12.3-12.3c1.8-1.8,1.8-4.6,0-6.4c-1.8-1.8-4.6-1.8-6.4,0l-10.4,10.4l-10.4-10.4c-1.8-1.8-4.6-1.8-6.4,0c-1.8,1.8-1.8,4.6,0,6.4
		L42.3,197v11.4C26.9,206.2,15.1,193,15.1,177c0-17.5,14.2-31.7,31.7-31.7c17.5,0,31.7,14.2,31.7,31.7
		C78.5,193,66.7,206.2,51.3,208.4 M137.5,140.8H96.7V109h40.8V140.8z M137.5,100H96.7V68.2h40.8V100z M137.5,59.1H96.7V27.4h40.8
		V59.1z M187.3,140.8h-40.8V109h40.8V140.8z M187.3,100h-40.8V68.2h40.8V100z M187.3,59.1h-40.8V27.4h40.8V59.1z M237.2,145.3
		c17.5,0,31.7,14.2,31.7,31.7c0,16-11.8,29.2-27.2,31.4V197l12.3-12.3c1.8-1.8,1.8-4.6,0-6.4c-1.8-1.8-4.6-1.8-6.4,0l-10.4,10.4
		l-10.4-10.4c-1.8-1.8-4.6-1.8-6.4,0c-1.8,1.8-1.8,4.6,0,6.4l12.3,12.3v11.4c-15.4-2.2-27.2-15.4-27.2-31.4
		C205.5,159.5,219.7,145.3,237.2,145.3"/>
</g>
</svg>
