<?xml version="1.0" encoding="utf-8"?>
<!-- Generator: Adobe Illustrator 19.2.1, SVG Export Plug-In . SVG Version: 6.00 Build 0)  -->
<svg version="1.1" id="Layer_1" xmlns="http://www.w3.org/2000/svg" xmlns:xlink="http://www.w3.org/1999/xlink" x="0px" y="0px"
	 viewBox="0 0 283.5 283.5" style="enable-background:new 0 0 283.5 283.5;" xml:space="preserve">
<style type="text/css">
	.st0{fill:#FFFFFF;}
</style>
<path class="st0" d="M7,188.2C30.3,176.4,53,164.7,76,153.5c12.5-6.1,25.7-5.6,38.4-0.7c12.7,4.9,25,10.9,37.7,15.9
	c7.5,3,15.4,5.3,23.2,7.6c8.7,2.6,14.1,9.1,13.2,16.4c-0.9,7.4-7.1,12.4-16.4,12c-10.8-0.4-21.6-1.2-32.3-2.4
	c-11.9-1.4-23.6-3.5-35.4-5.3c-2.8-0.4-5.6-0.8-6.5,2.7c-0.9,3.3,1.2,5.1,4.2,5.6c12.1,2,24.2,4.2,36.4,5.7
	c8.9,1.1,17.9,1.4,26.9,2.1c7.4,0.6,14.9,1,21.2-3.5c3.5-2.5,6.6-6.1,8.6-9.9c1.6-3,3.3-4.9,6.6-5.9c15.8-5.3,31.4-11.1,47.2-16.1
	c4.9-1.5,10.6-2.1,15.6-1.2c10.1,1.9,13.9,13.3,7.5,21.5c-2,2.6-4.7,5-7.5,6.4c-32.8,15.8-65.8,31.2-98.7,47
	c-18.2,8.8-35.6,7.4-53-2.2c-10.9-6-22.4-11.2-33-17.7c-14-8.5-26.2-6-38,3.9c-1.4,1.2-2.9,2.2-4.7,3.6C27,222,17.1,205.3,7,188.2z"
	/>
<path class="st0" d="M169.8,83.6c0,18.3-14.7,33.2-32.9,33.2c-18.5,0.1-33.5-14.7-33.6-33.2c-0.2-18,15.4-33.5,33.5-33.4
	C155.1,50.5,169.8,65.4,169.8,83.6z"/>
<path class="st0" d="M139.7,42.3c4.5-11.3,16.6-17.7,29.9-16.2c12.7,1.5,23,12.1,24.8,25.6c1.6,11.7-5.5,24.3-16.4,28.8
	C174.6,58.8,162,45.8,139.7,42.3z"/>
<path class="st0" d="M257,165.5c-20,6.9-39.7,13.7-59.1,20.4c-3-4.9-5.8-9.3-8.9-14.2c2.5-0.9,5-1.8,7.4-2.6
	c12.1-4.2,24.1-8.4,36.2-12.4C244.1,152.9,252.5,155.9,257,165.5z"/>
<path class="st0" d="M221.2,151.2c-15.2,5.3-29.8,10.5-44.5,15.6c-1.2,0.4-2.7,0.3-3.9-0.1c-7.2-2.3-14.4-4.7-22.7-7.5
	c1.8-0.9,2.5-1.4,3.4-1.6c14.4-5,28.8-10,43.3-14.8C207.6,139.1,215.2,141.7,221.2,151.2z"/>
</svg>
